<svg width="240" height="45" viewBox="0 0 240 45" fill="none" xmlns="http://www.w3.org/2000/svg">
<path d="M6.34917 42.8716C4.38277 41.6956 2.83091 39.9905 1.70067 37.763C0.56689 35.5321 0 32.8965 0 29.8493C0 24.5919 1.15149 19.7254 3.45448 15.2428C5.75747 10.7637 9.15881 7.16652 13.6585 4.45137C18.1546 1.73968 23.5578 0.380371 29.8645 0.380371C31.4943 0.380371 33.2375 0.501429 35.0976 0.743544C36.9577 0.98566 38.6477 1.34883 40.1712 1.83306C41.1633 2.10977 41.6593 2.80153 41.6593 3.90834C41.6593 4.80762 41.3121 5.65503 40.6247 6.45055C39.9338 7.24607 39.126 7.64383 38.2048 7.64383C37.9214 7.64383 37.7088 7.62654 37.5671 7.59195C35.7247 7.1769 34.148 6.87598 32.8371 6.68575C31.5262 6.49552 30.1444 6.39867 28.6917 6.39867C24.192 6.39867 20.3655 7.46398 17.2122 9.58768C14.0589 11.7148 11.7027 14.5268 10.1438 18.0202C8.58484 21.5136 7.80536 25.2837 7.80536 29.3305C7.80536 32.2704 8.39705 34.5429 9.58398 36.1512C10.7709 37.7595 12.3228 38.562 14.2325 38.562C16.3937 38.562 18.2893 37.6973 19.9191 35.9679C21.5489 34.2385 23.037 31.4369 24.3833 27.563C25.7297 23.6892 27.0584 18.4318 28.3693 11.7909C28.5819 10.8225 29.007 10.1653 29.6448 9.81942C30.2825 9.47354 31.1329 9.3006 32.1958 9.3006C34.7114 9.3006 35.9692 10.0961 35.9692 11.6872C35.9692 11.9639 35.916 12.3097 35.8097 12.7248C34.8885 16.0798 34.0453 19.7911 33.2871 23.8517C32.5253 27.9158 32.1427 31.0045 32.1427 33.1144C32.1427 34.9821 32.4261 36.3414 32.993 37.1888C33.5599 38.0362 34.4279 38.4582 35.5971 38.4582C36.7663 38.4582 37.8116 38.0881 38.839 37.341C39.8665 36.5974 41.1597 35.328 42.7187 33.5294C43.1439 33.0452 43.6222 32.8031 44.1536 32.8031C44.6142 32.8031 44.9792 33.0106 45.2449 33.4257C45.5106 33.8407 45.6417 34.4114 45.6417 35.1378C45.6417 36.4867 45.3051 37.5589 44.6319 38.3545C42.8958 40.3951 41.1952 41.9516 39.5299 43.0238C37.8647 44.096 35.8274 44.6322 33.4182 44.6322C31.0089 44.6322 28.9362 43.93 27.4127 42.5292C25.8891 41.1284 24.9325 39.15 24.5428 36.5905C21.9209 41.9516 18.059 44.6322 12.957 44.6322C10.5123 44.6322 8.30848 44.0442 6.34208 42.8682L6.34917 42.8716Z" fill="#F4764C"/>
<path d="M81.0157 33.4291C81.2814 33.8442 81.4125 34.4149 81.4125 35.1412C81.4125 36.4902 81.0759 37.5624 80.4027 38.3579C78.4186 40.6753 76.4947 42.3009 74.6346 43.2348C72.7745 44.1687 70.5317 44.6356 67.9134 44.6356C66.071 44.6356 64.3704 44.4108 62.8114 43.9612C61.2525 43.5115 59.3569 42.837 57.1248 41.9378C55.1053 41.0731 53.1566 40.364 51.2788 39.8106C49.4718 43.0273 46.7613 44.6356 43.1474 44.6356C41.1633 44.6356 39.576 44.1929 38.3926 43.3109C37.2057 42.4289 36.614 41.2979 36.614 39.9144C36.614 38.2196 37.4466 36.8118 39.1119 35.6877C40.7771 34.5636 42.9915 33.9998 45.7551 33.9998H46.446L47.4026 18.9022C47.6152 15.4434 48.253 12.5899 49.3159 10.3417C50.3788 8.09348 51.8492 6.17385 53.727 4.5828C55.3568 3.19929 57.2169 2.15473 59.3073 1.44568C61.3977 0.736627 63.6121 0.380371 65.9506 0.380371C69.7771 0.380371 72.7178 1.34883 74.7728 3.28576C76.8278 5.22268 77.8553 7.7476 77.8553 10.8605C77.8553 12.9704 77.4655 14.6756 76.686 15.9726C75.9066 17.2697 74.8259 17.9164 73.4441 17.9164C72.4521 17.9164 71.6726 17.6812 71.1057 17.2143C70.5388 16.7474 70.2554 16.0833 70.2554 15.2151C70.2554 14.9038 70.3262 14.3331 70.468 13.503C70.6806 12.5346 70.7868 11.6699 70.7868 10.9089C70.7868 9.45624 70.3511 8.30792 69.4865 7.45706C68.6185 6.60965 67.2969 6.18768 65.5289 6.18768C62.4111 6.18768 60.0018 7.18382 58.3011 9.16916C56.6004 11.158 55.5198 14.2813 55.0592 18.5321L53.8368 30.3093C53.6597 31.9695 53.4294 33.4049 53.1459 34.6155C55.4135 34.996 58.2479 35.6012 61.6493 36.4314C63.6334 36.9156 65.1569 37.2615 66.2198 37.469C67.2828 37.6765 68.2217 37.7803 69.0366 37.7803C71.0916 37.7803 72.8525 37.4448 74.3228 36.7703C75.7932 36.0959 77.1821 35.0167 78.493 33.526C78.9182 33.0417 79.3965 32.7996 79.928 32.7996C80.3885 32.7996 80.7535 33.0072 81.0192 33.4222L81.0157 33.4291Z" fill="#F4764C"/>
<path d="M86.2238 42.5603C83.6906 41.1768 81.6781 39.1431 80.1936 36.466C78.7055 33.7854 77.9614 30.5756 77.9614 26.8401C77.9614 21.5828 78.9464 16.948 80.9128 12.9358C82.8792 8.92359 85.5542 5.82797 88.9378 3.64893C92.3215 1.46989 96.0665 0.380371 100.176 0.380371C103.33 0.380371 106.171 1.07213 108.708 2.45565C111.241 3.83916 113.254 5.87293 114.742 8.55004C116.23 11.2306 116.974 14.4404 116.974 18.1759C116.974 23.4332 115.989 28.068 114.023 32.0802C112.056 36.0924 109.381 39.188 105.998 41.3671C102.614 43.5461 98.869 44.6356 94.7591 44.6356C91.6058 44.6356 88.7607 43.9439 86.2274 42.5603H86.2238ZM102.593 36.0232C104.701 34.363 106.32 32.056 107.454 29.0953C108.588 26.138 109.155 22.7933 109.155 19.0544C109.155 14.9384 108.269 11.8186 106.497 9.69144C104.726 7.56428 102.44 6.50243 99.6414 6.50243C96.8424 6.50243 94.504 7.32563 92.4136 8.96509C90.3232 10.608 88.6934 12.9081 87.5241 15.8654C86.3549 18.8227 85.7703 22.1881 85.7703 25.9581C85.7703 30.0741 86.6561 33.1939 88.4276 35.3211C90.1992 37.4482 92.4844 38.5101 95.2835 38.5101C98.0825 38.5101 100.481 37.68 102.589 36.0198L102.593 36.0232Z" fill="#F4764C"/>
<path d="M171.151 33.4288C171.417 33.8439 171.548 34.4146 171.548 35.1409C171.548 36.4899 171.211 37.5621 170.538 38.3576C168.837 40.3637 167.119 41.9133 165.383 42.9993C163.647 44.0888 161.592 44.6353 159.218 44.6353C156.844 44.6353 154.956 44.03 153.344 42.8195C151.732 41.6089 150.197 39.5336 148.748 36.5936C147.579 34.2417 146.658 32.5053 145.985 31.3778C145.312 30.2537 144.645 29.4512 143.994 28.967C143.338 28.4828 142.534 28.1888 141.574 28.085C141.432 28.8113 141.024 31.0942 140.351 34.9334C140.068 36.6628 139.891 37.7177 139.82 38.0982C139.465 40.2081 138.757 41.8268 137.694 42.9509C136.631 44.075 135.019 44.6388 132.858 44.6388C130.484 44.6388 128.383 43.9574 126.558 42.5877C124.733 41.2215 123.323 39.3192 122.335 36.8807C121.343 34.4423 120.847 31.6683 120.847 28.5554C120.847 22.7446 121.881 17.7294 123.957 13.5097C126.03 9.28993 128.935 6.06288 132.673 3.83196C136.411 1.60104 140.723 0.487305 145.616 0.487305C149.018 0.487305 151.87 0.988829 154.173 1.99188C156.476 2.99493 158.187 4.37845 159.303 6.14243C160.419 7.90641 160.975 9.89522 160.975 12.1088C160.975 14.0458 160.504 15.9412 159.569 17.7916C158.63 19.6421 157.22 21.2781 155.342 22.6927C153.464 24.1109 151.179 25.1658 148.486 25.8575C150.187 26.3072 151.498 27.0335 152.419 28.0366C153.34 29.0396 154.261 30.5096 155.182 32.4465C156.175 34.5218 157.156 36.0437 158.13 37.0121C159.105 37.9806 160.231 38.4648 161.507 38.4648C162.641 38.4648 163.721 38.0947 164.749 37.3476C165.776 36.604 167.069 35.3346 168.628 33.5361C169.054 33.0518 169.532 32.8097 170.063 32.8097C170.524 32.8097 170.885 33.0172 171.151 33.4323V33.4288ZM134.243 28.0331C133.038 28.0331 132.213 27.7564 131.773 27.203C131.331 26.6496 131.107 26.027 131.107 25.3353C131.107 24.5052 131.38 23.848 131.933 23.3638C132.482 22.8795 133.109 22.6374 133.818 22.6374H135.146C135.713 19.2478 136.245 16.3251 136.741 13.8694C137.201 11.6212 138.69 10.497 141.205 10.497C143.225 10.497 144.234 11.379 144.234 13.143C144.234 13.5235 144.217 13.8175 144.181 14.025L142.587 22.6374C144.5 22.5336 146.243 22.084 147.824 21.2885C149.4 20.493 150.658 19.3861 151.597 17.968C152.536 16.5499 153.004 14.9416 153.004 13.143C153.004 10.964 152.242 9.25188 150.718 8.00672C149.195 6.76155 146.963 6.13897 144.022 6.13897C140.55 6.13897 137.51 6.97946 134.906 8.65697C132.301 10.3345 130.271 12.8248 128.822 16.128C127.369 19.4311 126.643 23.4537 126.643 28.1922C126.643 30.4059 126.873 32.3082 127.334 33.8992C127.795 35.4903 128.362 36.6836 129.035 37.4791C129.708 38.2746 130.346 38.6724 130.948 38.6724C131.409 38.6724 131.788 38.4475 132.089 37.9979C132.39 37.5483 132.627 36.8219 132.808 35.8189L134.243 28.0366V28.0331Z" fill="#F4764C"/>
<path d="M174.021 42.8717C172.055 41.6957 170.503 39.9905 169.373 37.763C168.239 35.5321 167.672 32.8965 167.672 29.8493C167.672 24.592 168.823 19.7254 171.126 15.2428C173.429 10.7637 176.831 7.16656 181.33 4.45141C185.83 1.73626 191.233 0.376953 197.54 0.376953C199.17 0.376953 200.913 0.498011 202.773 0.740126C204.633 0.982242 206.323 1.34541 207.85 1.82965C208.842 2.10635 209.338 2.79811 209.338 3.90492C209.338 4.80421 208.995 5.65161 208.304 6.44713C207.613 7.24266 206.805 7.64042 205.884 7.64042C205.6 7.64042 205.388 7.62312 205.246 7.58853C203.404 7.17348 201.827 6.87256 200.516 6.68233C199.205 6.4921 197.823 6.39525 196.371 6.39525C191.871 6.39525 188.044 7.46056 184.891 9.58426C181.738 11.7114 179.382 14.5234 177.823 18.0168C176.264 21.5102 175.484 25.2803 175.484 29.327C175.484 32.267 176.076 34.5394 177.263 36.1478C178.45 37.7561 180.002 38.5586 181.911 38.5586C184.073 38.5586 185.968 37.6939 187.598 35.9645C189.228 34.2351 190.716 31.4334 192.062 27.5596C193.409 23.6858 194.737 18.4284 196.048 11.7875C196.261 10.819 196.686 10.1619 197.324 9.816C197.962 9.47012 198.812 9.29718 199.875 9.29718C202.39 9.29718 203.648 10.0927 203.648 11.6837C203.648 11.9604 203.595 12.3063 203.489 12.7214C202.568 16.0764 201.724 19.7877 200.966 23.8483C200.204 27.9124 199.825 31.0011 199.825 33.111C199.825 34.9787 200.109 36.338 200.676 37.1854C201.242 38.0328 202.11 38.4548 203.28 38.4548C204.449 38.4548 205.494 38.0847 206.522 37.3376C207.549 36.594 208.842 35.3246 210.401 33.526C210.826 33.0418 211.305 32.7997 211.836 32.7997C212.297 32.7997 212.662 33.0072 212.927 33.4223C213.193 33.8373 213.324 34.408 213.324 35.1344C213.324 36.4833 212.988 37.5555 212.314 38.351C210.578 40.3917 208.878 41.9482 207.212 43.0204C205.547 44.0926 203.51 44.6287 201.101 44.6287C198.691 44.6287 196.619 43.9266 195.095 42.5258C193.572 41.125 192.615 39.1466 192.225 36.587C189.603 41.9482 185.741 44.6287 180.639 44.6287C178.195 44.6287 175.991 44.0407 174.025 42.8648L174.021 42.8717Z" fill="#F4764C"/>
<path d="M223.5 43.3901C222.703 42.56 222.302 41.4704 222.302 40.1215C222.302 38.5651 222.752 37.3199 223.659 36.386C224.563 35.4521 225.828 34.9852 227.458 34.9852C229.087 34.9852 230.193 35.3588 230.99 36.0989C231.787 36.8426 232.188 37.9425 232.188 39.3952C232.188 40.9862 231.727 42.2591 230.806 43.2102C229.885 44.1614 228.627 44.6352 227.032 44.6352C225.438 44.6352 224.297 44.2202 223.5 43.3901ZM227.298 31.7685C226.838 31.4572 226.607 30.973 226.607 30.3158L226.66 29.9008C227.263 26.0269 228.078 21.617 229.105 16.6709C230.133 11.7248 231.089 7.45323 231.975 3.85609C232.542 1.64246 234.083 0.535645 236.599 0.535645C238.866 0.535645 240 1.2447 240 2.6628C240 2.97409 239.947 3.31997 239.841 3.70044C238.919 7.36676 237.697 11.8044 236.174 17.0099C234.65 22.2154 233.197 26.736 231.816 30.5753C231.426 31.6821 230.505 32.2355 229.052 32.2355C228.343 32.2355 227.759 32.0798 227.298 31.7685Z" fill="#F4764C"/>
</svg>
