<svg width="270" height="51" viewBox="0 0 270 51" fill="none" xmlns="http://www.w3.org/2000/svg">
<g clip-path="url(#clip0_1_37)">
<path d="M7.14651 48.9672C4.93438 47.612 3.18858 45.6469 1.9171 43.08C0.641639 40.509 0.00390625 37.4717 0.00390625 33.9601C0.00390625 27.9015 1.2993 22.2933 3.89009 17.1276C6.48088 11.9658 10.3073 7.8204 15.3693 4.69144C20.4273 1.56647 26.5057 0 33.6004 0C35.4339 0 37.395 0.139508 39.4875 0.418523C41.5801 0.697538 43.4813 1.11606 45.1952 1.67409C46.3113 1.99297 46.8693 2.79015 46.8693 4.06565C46.8693 5.10199 46.4787 6.07855 45.7054 6.99531C44.9282 7.91207 44.0194 8.37046 42.9831 8.37046C42.6642 8.37046 42.4251 8.35053 42.2656 8.31067C40.193 7.83236 38.4193 7.48558 36.9446 7.26635C35.4698 7.04713 33.9153 6.93552 32.2811 6.93552C27.2191 6.93552 22.9144 8.16319 19.3671 10.6106C15.8197 13.0619 13.1691 16.3025 11.4153 20.3283C9.66157 24.354 8.78469 28.6987 8.78469 33.3622C8.78469 36.7503 9.45032 39.369 10.7856 41.2225C12.1208 43.076 13.8666 44.0007 16.015 44.0007C18.4463 44.0007 20.5788 43.0042 22.4122 41.0113C24.2457 39.0183 25.9198 35.7897 27.4344 31.3254C28.949 26.8612 30.4437 20.8026 31.9184 13.1496C32.1576 12.0335 32.6359 11.2762 33.3533 10.8776C34.0708 10.479 35.0274 10.2797 36.2231 10.2797C39.0531 10.2797 40.468 11.1965 40.468 13.03C40.468 13.3489 40.4082 13.7475 40.2887 14.2258C39.2524 18.0921 38.3037 22.369 37.4508 27.0485C36.5938 31.732 36.1633 35.2914 36.1633 37.7229C36.1633 39.8753 36.4822 41.4417 37.1199 42.4183C37.7577 43.3948 38.7342 43.8811 40.0495 43.8811C41.3648 43.8811 42.5407 43.4546 43.6965 42.5937C44.8524 41.7367 46.3073 40.2739 48.061 38.2012C48.5393 37.6431 49.0774 37.3641 49.6753 37.3641C50.1934 37.3641 50.604 37.6033 50.9029 38.0816C51.2019 38.5599 51.3493 39.2176 51.3493 40.0546C51.3493 41.6091 50.9707 42.8448 50.2134 43.7615C48.2603 46.1132 46.3471 47.9069 44.4738 49.1426C42.6004 50.3782 40.3086 50.996 37.5982 50.996C34.8879 50.996 32.5562 50.1869 30.8423 48.5726C29.1283 46.9583 28.0522 44.6783 27.6137 41.7287C24.6642 47.9069 20.3197 50.996 14.5801 50.996C11.8299 50.996 9.35067 50.3184 7.13854 48.9632L7.14651 48.9672Z" fill="white"/>
<path d="M91.144 38.0856C91.4429 38.5639 91.5904 39.2216 91.5904 40.0586C91.5904 41.6131 91.2118 42.8488 90.4545 43.7655C88.2224 46.4361 86.0581 48.3095 83.9655 49.3857C81.873 50.4619 79.3499 51 76.4044 51C74.3318 51 72.4186 50.7409 70.6648 50.2227C68.911 49.7046 66.7786 48.9273 64.2676 47.891C61.9956 46.8945 59.8034 46.0774 57.6909 45.4396C55.6582 49.1465 52.609 51 48.5435 51C46.3114 51 44.5258 50.4898 43.1945 49.4734C41.8592 48.457 41.1936 47.1536 41.1936 45.5592C41.1936 43.6061 42.1303 41.9838 44.0036 40.6884C45.877 39.393 48.3681 38.7433 51.477 38.7433H52.2543L53.3305 21.3447C53.5696 17.3587 54.287 14.0703 55.4828 11.4795C56.6785 8.88863 58.3327 6.67644 60.4452 4.84291C62.2786 3.24853 64.3712 2.04478 66.7228 1.22767C69.0745 0.410551 71.5656 0 74.1963 0C78.5009 0 81.8092 1.11606 84.121 3.34818C86.4328 5.5803 87.5886 8.49004 87.5886 12.0774C87.5886 14.5088 87.1502 16.4739 86.2733 17.9686C85.3964 19.4633 84.1808 20.2087 82.6263 20.2087C81.5103 20.2087 80.6334 19.9376 79.9956 19.3995C79.3579 18.8614 79.039 18.0961 79.039 17.0957C79.039 16.7369 79.1188 16.0793 79.2782 15.1226C79.5173 14.0066 79.6369 13.0101 79.6369 12.1332C79.6369 10.4591 79.1467 9.13576 78.1741 8.15522C77.1976 7.17866 75.7109 6.69238 73.7219 6.69238C70.2144 6.69238 67.5041 7.84033 65.5909 10.1283C63.6777 12.4202 62.462 16.0195 61.9438 20.9182L60.5687 34.4903C60.3694 36.4035 60.1103 38.0577 59.7915 39.4528C62.3424 39.8912 65.5311 40.5887 69.3575 41.5454C71.5895 42.1034 73.3034 42.502 74.4992 42.7412C75.6949 42.9803 76.7512 43.0999 77.6679 43.0999C79.9797 43.0999 81.9607 42.7132 83.6148 41.936C85.2689 41.1587 86.8313 39.9151 88.3061 38.1972C88.7844 37.6392 89.3225 37.3601 89.9204 37.3601C90.4385 37.3601 90.849 37.5993 91.148 38.0776L91.144 38.0856Z" fill="white"/>
<path d="M97.0032 48.6084C94.1533 47.0141 91.8894 44.6703 90.2193 41.5852C88.5453 38.4961 87.7083 34.7972 87.7083 30.4924C87.7083 24.4338 88.8163 19.0926 91.0284 14.4689C93.2406 9.84525 96.2499 6.27784 100.056 3.76671C103.863 1.25557 108.076 0 112.699 0C116.247 0 119.443 0.797186 122.297 2.39156C125.147 3.98593 127.411 6.32966 129.085 9.41477C130.759 12.5039 131.596 16.2028 131.596 20.5076C131.596 26.5662 130.488 31.9074 128.276 36.5311C126.064 41.1548 123.055 44.7222 119.248 47.2333C115.442 49.7444 111.229 51 106.605 51C103.058 51 99.8571 50.2028 97.0072 48.6084H97.0032ZM115.418 41.075C117.789 39.1618 119.611 36.5032 120.886 33.0912C122.162 29.6832 122.799 25.8288 122.799 21.52C122.799 16.7768 121.803 13.1815 119.81 10.7301C117.817 8.27878 115.246 7.0551 112.098 7.0551C108.949 7.0551 106.318 8.00375 103.966 9.89308C101.615 11.7864 99.7813 14.437 98.466 17.845C97.1507 21.253 96.493 25.1313 96.493 29.476C96.493 34.2192 97.4895 37.8145 99.4824 40.2659C101.475 42.7172 104.046 43.9409 107.195 43.9409C110.344 43.9409 113.042 42.9843 115.414 41.071L115.418 41.075Z" fill="white"/>
<path d="M192.543 38.0856C192.842 38.5639 192.99 39.2216 192.99 40.0586C192.99 41.6131 192.611 42.8488 191.854 43.7655C189.941 46.0774 188.008 47.8631 186.054 49.1147C184.101 50.3702 181.79 51 179.119 51C176.449 51 174.324 50.3025 172.511 48.9074C170.697 47.5123 168.971 45.1208 167.341 41.7327C166.026 39.0223 164.989 37.0213 164.232 35.7219C163.475 34.4265 162.725 33.5018 161.992 32.9437C161.255 32.3857 160.35 32.0469 159.27 31.9273C159.11 32.7644 158.652 35.3951 157.895 39.8195C157.576 41.8124 157.376 43.0281 157.297 43.4666C156.898 45.898 156.101 47.7634 154.905 49.0589C153.71 50.3543 151.896 51.004 149.465 51.004C146.794 51.004 144.43 50.2188 142.378 48.6403C140.325 47.0659 138.739 44.8736 137.627 42.0635C136.511 39.2535 135.953 36.0567 135.953 32.4694C135.953 25.773 137.116 19.9934 139.452 15.1306C141.784 10.2678 145.052 6.54889 149.257 3.97796C153.462 1.40704 158.313 0.123566 163.818 0.123566C167.644 0.123566 170.853 0.701526 173.443 1.85745C176.034 3.01337 177.959 4.60774 179.215 6.64056C180.47 8.67339 181.096 10.9653 181.096 13.5163C181.096 15.7484 180.566 17.9327 179.514 20.0652C178.458 22.1977 176.871 24.083 174.759 25.7133C172.646 27.3475 170.075 28.5632 167.046 29.3604C168.959 29.8786 170.434 30.7156 171.47 31.8715C172.507 33.0274 173.543 34.7215 174.579 36.9536C175.695 39.3451 176.799 41.0989 177.896 42.215C178.992 43.3311 180.259 43.8891 181.694 43.8891C182.969 43.8891 184.185 43.4626 185.341 42.6016C186.497 41.7447 187.952 40.2818 189.706 38.2091C190.184 37.6511 190.722 37.3721 191.32 37.3721C191.838 37.3721 192.244 37.6113 192.543 38.0896V38.0856ZM151.023 31.8675C149.668 31.8675 148.739 31.5487 148.245 30.9109C147.747 30.2732 147.496 29.5557 147.496 28.7585C147.496 27.8019 147.803 27.0446 148.424 26.4865C149.042 25.9285 149.748 25.6495 150.545 25.6495H152.039C152.677 21.7433 153.275 18.3751 153.833 15.5451C154.351 12.9543 156.025 11.6589 158.855 11.6589C161.127 11.6589 162.263 12.6753 162.263 14.7081C162.263 15.1465 162.243 15.4853 162.203 15.7245L160.41 25.6495C162.562 25.5299 164.523 25.0117 166.301 24.095C168.074 23.1782 169.489 21.9027 170.546 20.2685C171.602 18.6342 172.128 16.7808 172.128 14.7081C172.128 12.197 171.271 10.2239 169.557 8.78898C167.843 7.35405 165.332 6.63658 162.024 6.63658C158.118 6.63658 154.698 7.60516 151.768 9.53834C148.839 11.4715 146.555 14.3414 144.925 18.1479C143.291 21.9545 142.473 26.5902 142.473 32.0509C142.473 34.6019 142.733 36.7941 143.251 38.6277C143.769 40.4612 144.407 41.8363 145.164 42.7531C145.921 43.6699 146.639 44.1283 147.316 44.1283C147.834 44.1283 148.261 43.8692 148.6 43.351C148.938 42.8328 149.206 41.9958 149.409 40.8399L151.023 31.8715V31.8675Z" fill="white"/>
<path d="M195.772 48.9672C193.56 47.612 191.814 45.6469 190.543 43.08C189.267 40.509 188.629 37.4717 188.629 33.9601C188.629 27.9015 189.925 22.2933 192.516 17.1276C195.106 11.9658 198.933 7.8204 203.995 4.69145C209.057 1.56249 215.135 -0.00398254 222.23 -0.00398254C224.063 -0.00398254 226.024 0.135525 228.117 0.41454C230.21 0.693556 232.111 1.11208 233.829 1.67011C234.945 1.98898 235.503 2.78617 235.503 4.06167C235.503 5.09801 235.116 6.07456 234.339 6.99133C233.562 7.90809 232.653 8.36647 231.617 8.36647C231.298 8.36647 231.059 8.34655 230.899 8.30669C228.826 7.82837 227.053 7.4816 225.578 7.26237C224.103 7.04314 222.549 6.93154 220.915 6.93154C215.853 6.93154 211.548 8.15921 208.001 10.6066C204.453 13.0579 201.803 16.2985 200.049 20.3243C198.295 24.3501 197.418 28.6947 197.418 33.3583C197.418 36.7463 198.084 39.3651 199.419 41.2185C200.754 43.072 202.5 43.9967 204.648 43.9967C207.08 43.9967 209.212 43.0002 211.046 41.0073C212.879 39.0143 214.553 35.7857 216.068 31.3215C217.582 26.8572 219.077 20.7986 220.552 13.1456C220.791 12.0295 221.269 11.2722 221.987 10.8736C222.704 10.475 223.661 10.2757 224.857 10.2757C227.687 10.2757 229.101 11.1925 229.101 13.026C229.101 13.3449 229.042 13.7435 228.922 14.2218C227.886 18.0882 226.937 22.3651 226.084 27.0446C225.227 31.728 224.801 35.2875 224.801 37.7189C224.801 39.8713 225.12 41.4378 225.757 42.4143C226.395 43.3909 227.372 43.8771 228.687 43.8771C230.002 43.8771 231.178 43.4506 232.334 42.5897C233.49 41.7327 234.945 40.2699 236.698 38.1972C237.177 37.6392 237.715 37.3601 238.313 37.3601C238.831 37.3601 239.241 37.5993 239.54 38.0776C239.839 38.5559 239.987 39.2136 239.987 40.0506C239.987 41.6052 239.608 42.8408 238.851 43.7576C236.898 46.1093 234.985 47.9029 233.111 49.1386C231.238 50.3742 228.946 50.992 226.236 50.992C223.525 50.992 221.194 50.1829 219.48 48.5686C217.766 46.9543 216.69 44.6743 216.251 41.7247C213.302 47.9029 208.957 50.992 203.218 50.992C200.467 50.992 197.988 50.3144 195.776 48.9592L195.772 48.9672Z" fill="white"/>
<path d="M251.434 49.5651C250.537 48.6084 250.087 47.3529 250.087 45.7984C250.087 44.0047 250.593 42.5698 251.613 41.4936C252.63 40.4174 254.053 39.8793 255.886 39.8793C257.72 39.8793 258.963 40.3097 259.86 41.1627C260.757 42.0197 261.207 43.2872 261.207 44.9613C261.207 46.7948 260.689 48.2617 259.653 49.3578C258.617 50.4539 257.202 51 255.408 51C253.614 51 252.331 50.5217 251.434 49.5651ZM255.707 36.1723C255.189 35.8136 254.93 35.2556 254.93 34.4982L254.989 34.0199C255.667 29.5557 256.584 24.4736 257.74 18.7737C258.896 13.0739 259.972 8.15123 260.968 4.00586C261.606 1.45487 263.34 0.179367 266.17 0.179367C268.721 0.179367 269.996 0.996483 269.996 2.63072C269.996 2.98945 269.936 3.38804 269.817 3.8265C268.78 8.05158 267.405 13.1655 265.691 19.1644C263.978 25.1632 262.343 30.3728 260.789 34.7972C260.35 36.0727 259.314 36.7104 257.68 36.7104C256.883 36.7104 256.225 36.5311 255.707 36.1723Z" fill="white"/>
</g>
<defs>
<clipPath id="clip0_1_37">
<rect width="270" height="51" fill="white"/>
</clipPath>
</defs>
</svg>
