<svg width="174" height="83" viewBox="0 0 174 83" fill="none" xmlns="http://www.w3.org/2000/svg">
<g clip-path="url(#clip0_38_87)">
<path d="M28.8913 83C47.2765 83 61.8857 73.5375 62.542 56.2747C63.0347 44.4884 53.0626 37.1006 45.3057 33.2004C40.2441 30.6548 35.9485 28.3875 35.9485 25.2327C35.9485 23.2397 37.9193 21.5816 40.2172 21.5816C43.9932 21.5816 47.1109 25.2327 48.4255 28.7204L69.4377 18.096C67.4648 10.7898 58.766 0 42.6787 0C22.6518 0 8.20823 11.7863 8.86448 27.5564C9.35718 39.5081 18.7144 46.1486 26.4278 50.1324C31.1871 52.6216 34.9631 54.6146 34.9631 57.602C34.9631 59.9257 33.3215 60.9222 31.0236 60.9222C27.2476 60.9222 23.8008 58.1002 21.3393 52.7891L0 63.4114C1.80519 70.8809 9.35718 83 28.8913 83ZM118.844 81.5053H168.09L174 46.4793L149.541 58.7638L158.898 1.49474H132.141L118.844 81.5053ZM63.8544 81.5053H113.1L119.01 46.4793L94.551 58.7638L103.908 1.49474H77.1512L63.8544 81.5053Z" fill="white"/>
</g>
<defs>
<clipPath id="clip0_38_87">
<rect width="174" height="83" fill="white"/>
</clipPath>
</defs>
</svg>
