<svg width="34" height="35" viewBox="0 0 34 35" fill="none" xmlns="http://www.w3.org/2000/svg">
<g clip-path="url(#clip0_38_89)">
<path fill-rule="evenodd" clip-rule="evenodd" d="M34 2.58797V32.4276C34 33.8619 32.8774 35.0156 31.4781 35.0156H2.52194C1.12257 35.0156 0 33.7216 0 32.4276V2.58797C0 1.15367 1.12257 0 2.52194 0H31.4934C32.8928 0 34.0154 1.15367 34.0154 2.58797H34ZM10.0724 13.049H5.02849V29.6837H10.0724V13.049ZM10.5029 7.74833C10.5029 6.03341 9.10357 4.73942 7.56581 4.73942C5.88964 4.73942 4.62867 6.17372 4.62867 7.74833C4.62867 9.46325 6.02804 10.7572 7.56581 10.7572C9.24197 10.7572 10.5029 9.46325 10.5029 7.74833ZM28.9715 29.6837V20.5011C28.9715 16.0579 27.9873 12.6125 22.9588 12.6125C20.5753 12.6125 18.8991 14.0468 18.1918 15.3408H18.0534V13.049H13.3017V29.5434H18.1918V21.3742C18.1918 19.2227 18.607 17.0713 21.2673 17.0713C23.9276 17.0713 23.9276 19.6592 23.9276 21.5145V29.6837H28.9715Z" fill="white"/>
</g>
<defs>
<clipPath id="clip0_38_89">
<rect width="34" height="35" fill="white"/>
</clipPath>
</defs>
</svg>
