<svg width="33" height="33" viewBox="0 0 33 33" fill="none" xmlns="http://www.w3.org/2000/svg">
<g clip-path="url(#clip0_38_95)">
<path d="M25.2293 5.8905C24.1642 5.8905 23.2936 6.76112 23.2936 7.82623C23.2936 8.89134 24.1642 9.76196 25.2293 9.76196C26.2944 9.76196 27.165 8.89134 27.165 7.82623C27.165 6.76112 26.2944 5.8905 25.2293 5.8905Z" fill="white"/>
<path d="M16.6343 8.37268C12.1516 8.37268 8.51166 12.0219 8.51166 16.4953C8.51166 20.9688 12.1608 24.618 16.6343 24.618C21.1078 24.618 24.757 20.9688 24.757 16.4953C24.757 12.0219 21.1078 8.37268 16.6343 8.37268ZM16.6343 21.7005C13.7631 21.7005 11.4291 19.3665 11.4291 16.4953C11.4291 13.6242 13.7631 11.2902 16.6343 11.2902C19.5055 11.2902 21.8395 13.6242 21.8395 16.4953C21.8395 19.3665 19.5055 21.7005 16.6343 21.7005Z" fill="white"/>
<path d="M23.0806 33H9.91019C4.44569 33 0 28.5543 0 23.0898V9.91945C0 4.44569 4.44569 0 9.91019 0H23.0806C28.545 0 32.9907 4.44569 32.9907 9.91019V23.0805C32.9907 28.545 28.545 32.9907 23.0806 32.9907V33ZM9.91019 3.10272C6.15914 3.10272 3.10272 6.15914 3.10272 9.91019V23.0805C3.10272 26.8316 6.15914 29.888 9.91019 29.888H23.0806C26.8316 29.888 29.888 26.8316 29.888 23.0805V9.91019C29.888 6.15914 26.8316 3.10272 23.0806 3.10272H9.91019Z" fill="white"/>
</g>
<defs>
<clipPath id="clip0_38_95">
<rect width="33" height="33" fill="white"/>
</clipPath>
</defs>
</svg>
