<svg width="18" height="18" viewBox="0 0 18 18" fill="none" xmlns="http://www.w3.org/2000/svg">
<mask id="mask0_12_35" style="mask-type:alpha" maskUnits="userSpaceOnUse" x="0" y="0" width="18" height="18">
<rect y="18" width="18" height="18" transform="rotate(-90 0 18)" fill="#D9D9D9"/>
</mask>
<g mask="url(#mask0_12_35)">
<path d="M9 7.96012L11.3062 10.2664L11.8414 9.75L9 6.90862L6.15863 9.75L6.69375 10.2664L9 7.96012ZM15.75 8.99756C15.75 9.93094 15.5729 10.8085 15.2186 11.6302C14.8644 12.4519 14.3836 13.1666 13.7764 13.7745C13.1691 14.3824 12.455 14.8636 11.634 15.2181C10.8131 15.5727 9.93594 15.75 9.00244 15.75C8.06906 15.75 7.1915 15.5729 6.36975 15.2186C5.54812 14.8644 4.83337 14.3836 4.2255 13.7764C3.61762 13.1691 3.13644 12.455 2.78194 11.634C2.42731 10.8131 2.25 9.93594 2.25 9.00244C2.25 8.06906 2.42713 7.1915 2.78138 6.36975C3.13563 5.54812 3.61637 4.83337 4.22362 4.2255C4.83087 3.61763 5.545 3.13644 6.366 2.78194C7.18687 2.42731 8.06406 2.25 8.99756 2.25C9.93094 2.25 10.8085 2.42712 11.6302 2.78137C12.4519 3.13562 13.1666 3.61637 13.7745 4.22362C14.3824 4.83087 14.8636 5.545 15.2181 6.366C15.5727 7.18687 15.75 8.06406 15.75 8.99756ZM15 9C15 7.325 14.4187 5.90625 13.2562 4.74375C12.0937 3.58125 10.675 3 9 3C7.325 3 5.90625 3.58125 4.74375 4.74375C3.58125 5.90625 3 7.325 3 9C3 10.675 3.58125 12.0937 4.74375 13.2562C5.90625 14.4187 7.325 15 9 15C10.675 15 12.0937 14.4187 13.2563 13.2562C14.4187 12.0937 15 10.675 15 9Z" fill="white"/>
</g>
</svg>
