<svg xmlns="http://www.w3.org/2000/svg" width="39.039" height="39.039" viewBox="0 0 39.039 39.039">
  <path id="icon" d="M151.519-801.581l6.9-6.9-6.9-6.9-1.066,1.066,5.048,5.048H144v1.57h11.5l-5.048,5.048Zm.01,12.62a19.03,19.03,0,0,1-7.613-1.536,19.721,19.721,0,0,1-6.2-4.17,19.7,19.7,0,0,1-4.175-6.194A18.976,18.976,0,0,1,132-808.471a19.03,19.03,0,0,1,1.536-7.613,19.721,19.721,0,0,1,4.17-6.2,19.7,19.7,0,0,1,6.194-4.175A18.976,18.976,0,0,1,151.51-828a19.031,19.031,0,0,1,7.613,1.536,19.722,19.722,0,0,1,6.2,4.17A19.7,19.7,0,0,1,169.5-816.1a18.976,18.976,0,0,1,1.539,7.609,19.031,19.031,0,0,1-1.536,7.613,19.722,19.722,0,0,1-4.17,6.2,19.7,19.7,0,0,1-6.194,4.175A18.976,18.976,0,0,1,151.529-788.961Zm-.01-1.57a17.323,17.323,0,0,0,12.732-5.216,17.323,17.323,0,0,0,5.216-12.732,17.323,17.323,0,0,0-5.216-12.732,17.323,17.323,0,0,0-12.732-5.216,17.323,17.323,0,0,0-12.732,5.216,17.323,17.323,0,0,0-5.216,12.732,17.323,17.323,0,0,0,5.216,12.732A17.323,17.323,0,0,0,151.519-790.532ZM151.519-808.481Z" transform="translate(-132 828)" fill="#5f9fc3"/>
</svg>
