<svg width="170" height="170" viewBox="0 0 170 170" fill="none" xmlns="http://www.w3.org/2000/svg">
<mask id="mask0_1_40" style="mask-type:alpha" maskUnits="userSpaceOnUse" x="0" y="0" width="170" height="170">
<rect width="170" height="170" fill="#D9D9D9"/>
</mask>
<g mask="url(#mask0_1_40)">
<path d="M82.3958 153.708C82.3958 152.055 83.2517 150.816 84.9635 149.989C86.6753 149.163 89.125 148.75 92.3125 148.75V105.541C92.7847 105.659 93.1979 105.718 93.5521 105.718H94.7917C97.743 105.718 100.399 104.862 102.76 103.151C105.122 101.439 106.774 99.2253 107.719 96.51L130.385 102.177C131.094 102.413 131.714 102.678 132.245 102.974C132.776 103.269 133.16 103.711 133.396 104.302L149.51 133.52C150.337 134.937 150.632 136.413 150.396 137.948C150.16 139.482 149.451 140.781 148.271 141.843C146.972 143.142 145.378 143.762 143.49 143.703C141.601 143.644 139.948 142.965 138.531 141.666L101.167 104.125C100.576 104.479 99.9566 104.744 99.3073 104.921C98.658 105.099 97.9792 105.305 97.2708 105.541V148.75C100.458 148.75 102.908 149.163 104.62 149.989C106.332 150.816 107.187 152.055 107.187 153.708H82.3958ZM33.1667 139.541V134.583H59.375V139.541H33.1667ZM58.8438 109.791L26.9687 100.76C25.434 100.288 24.224 99.4319 23.3385 98.1923C22.4531 96.9527 22.0104 95.5656 22.0104 94.0308C22.0104 92.0239 22.6597 90.3711 23.9583 89.0725C25.2569 87.7739 26.9097 87.1246 28.9167 87.1246H82.0417C81.8056 87.951 81.599 88.7479 81.4219 89.5152C81.2448 90.2826 81.1562 91.1385 81.1562 92.0829C81.1562 93.0274 81.2448 93.9423 81.4219 94.8277C81.599 95.7131 81.8646 96.569 82.2188 97.3954L62.7396 109.437C62.2674 109.791 61.7066 109.998 61.0573 110.057C60.408 110.116 59.6701 110.027 58.8438 109.791ZM94.7917 100.937C92.3125 100.937 90.217 100.081 88.5052 98.3694C86.7934 96.6576 85.9375 94.5621 85.9375 92.0829C85.9375 89.6038 86.7934 87.5083 88.5052 85.7965C90.217 84.0847 92.3125 83.2288 94.7917 83.2288C97.2708 83.2288 99.3663 84.0847 101.078 85.7965C102.79 87.5083 103.646 89.6038 103.646 92.0829C103.646 94.5621 102.79 96.6576 101.078 98.3694C99.3663 100.081 97.2708 100.937 94.7917 100.937ZM102.052 80.5725C100.99 79.8642 99.8385 79.3329 98.599 78.9788C97.3594 78.6246 96.0903 78.4475 94.7917 78.4475H93.5521C93.1979 78.4475 92.7847 78.5065 92.3125 78.6246V53.8329C92.3125 53.2426 92.4306 52.6229 92.6667 51.9736C92.9028 51.3242 93.316 50.7635 93.9062 50.2913L118.167 27.6246C119.347 26.444 120.705 25.7652 122.24 25.5881C123.774 25.4111 125.191 25.7357 126.49 26.5621C128.142 27.6246 129.205 29.0708 129.677 30.9006C130.149 32.7305 129.913 34.4718 128.969 36.1246L102.052 80.5725ZM19 63.7496V58.7913H45.2083V63.7496H19ZM40.25 35.4163V30.4579H73.5417V35.4163H40.25Z" fill="white"/>
</g>
</svg>
