<svg width="170" height="170" viewBox="0 0 170 170" fill="none" xmlns="http://www.w3.org/2000/svg">
<mask id="mask0_1_79" style="mask-type:alpha" maskUnits="userSpaceOnUse" x="0" y="0" width="170" height="170">
<rect width="170" height="170" fill="#D9D9D9"/>
</mask>
<g mask="url(#mask0_1_79)">
<path d="M85 62.6875C80.0417 62.6875 75.8507 60.9757 72.4271 57.5521C69.0035 54.1285 67.2917 49.9375 67.2917 44.9791C67.2917 40.0208 69.0035 35.8298 72.4271 32.4062C75.8507 28.9826 80.0417 27.2708 85 27.2708C89.9583 27.2708 94.1493 28.9826 97.5729 32.4062C100.997 35.8298 102.708 40.0208 102.708 44.9791C102.708 49.9375 100.997 54.1285 97.5729 57.5521C94.1493 60.9757 89.9583 62.6875 85 62.6875ZM85 139.896L47.4583 102.354C45.8056 100.701 44.566 98.783 43.7396 96.5989C42.9132 94.4149 42.5 92.0833 42.5 89.6041C42.5 84.6458 44.2118 80.4548 47.6354 77.0312C51.059 73.6076 55.25 71.8958 60.2083 71.8958C62.5694 71.8958 64.783 72.3385 66.849 73.2239C68.9149 74.1094 70.8333 75.4375 72.6042 77.2083L85 89.6041L97.3958 77.2083C99.0486 75.5555 100.938 74.2569 103.063 73.3125C105.188 72.368 107.431 71.8958 109.792 71.8958C114.75 71.8958 118.941 73.6076 122.365 77.0312C125.788 80.4548 127.5 84.6458 127.5 89.6041C127.5 92.0833 127.087 94.4149 126.26 96.5989C125.434 98.783 124.194 100.701 122.542 102.354L85 139.896Z" fill="white"/>
</g>
</svg>
