<svg width="170" height="170" viewBox="0 0 170 170" fill="none" xmlns="http://www.w3.org/2000/svg">
<mask id="mask0_1_52" style="mask-type:alpha" maskUnits="userSpaceOnUse" x="0" y="0" width="170" height="170">
<rect width="170" height="170" fill="#D9D9D9"/>
</mask>
<g mask="url(#mask0_1_52)">
<path d="M49.8301 78.1635V49.8301H78.1635V78.1635H49.8301ZM49.8301 120.663V92.3301H78.1635V120.663H49.8301ZM92.3301 78.1635V49.8301H120.663V78.1635H92.3301ZM92.3301 120.663V92.3301H120.663V120.663H92.3301ZM41.3301 139.788C38.2607 139.788 35.7225 138.785 33.7156 136.778C31.7086 134.771 30.7051 132.233 30.7051 129.163V41.3301C30.7051 38.2607 31.7086 35.7225 33.7156 33.7156C35.7225 31.7086 38.2607 30.7051 41.3301 30.7051H129.163C132.233 30.7051 134.771 31.7086 136.778 33.7156C138.785 35.7225 139.788 38.2607 139.788 41.3301V129.163C139.788 132.233 138.785 134.771 136.778 136.778C134.771 138.785 132.233 139.788 129.163 139.788H41.3301ZM41.3301 134.83H129.163C130.58 134.83 131.879 134.24 133.059 133.059C134.24 131.879 134.83 130.58 134.83 129.163V41.3301C134.83 39.9135 134.24 38.6149 133.059 37.4343C131.879 36.2537 130.58 35.6635 129.163 35.6635H41.3301C39.9135 35.6635 38.6149 36.2537 37.4343 37.4343C36.2537 38.6149 35.6635 39.9135 35.6635 41.3301V129.163C35.6635 130.58 36.2537 131.879 37.4343 133.059C38.6149 134.24 39.9135 134.83 41.3301 134.83Z" fill="white"/>
</g>
</svg>
