<svg width="170" height="170" viewBox="0 0 170 170" fill="none" xmlns="http://www.w3.org/2000/svg">
<mask id="mask0_1_73" style="mask-type:alpha" maskUnits="userSpaceOnUse" x="0" y="0" width="170" height="170">
<rect width="170" height="170" fill="#D9D9D9"/>
</mask>
<g mask="url(#mask0_1_73)">
<path d="M49.5833 144.146C41.0833 144.146 33.8229 141.135 27.8021 135.115C21.7813 129.094 18.7708 121.833 18.7708 113.333C18.7708 106.84 20.5417 101.026 24.0833 95.8906C27.625 90.7552 32.2292 87.0659 37.8958 84.8229V90.3125C33.7639 92.4375 30.3698 95.5659 27.7136 99.6979C25.0573 103.83 23.7292 108.375 23.7292 113.333C23.7292 120.417 26.2674 126.497 31.3438 131.573C36.4201 136.649 42.5 139.187 49.5833 139.187C56.6667 139.187 62.7465 136.649 67.8229 131.573C72.8993 126.497 75.4375 120.417 75.4375 113.333V110.854H112.625C113.215 109.201 114.219 107.844 115.635 106.781C117.052 105.719 118.646 105.187 120.417 105.187C122.66 105.187 124.578 105.984 126.172 107.578C127.766 109.172 128.562 111.09 128.562 113.333C128.562 115.576 127.766 117.495 126.172 119.089C124.578 120.682 122.66 121.479 120.417 121.479C118.528 121.479 116.905 120.977 115.547 119.974C114.189 118.97 113.215 117.583 112.625 115.812H80.3958C79.4514 124.667 75.9392 131.602 69.8594 136.62C63.7795 141.637 57.0208 144.146 49.5833 144.146ZM120.417 144.146C115.931 144.146 111.71 143.231 107.755 141.401C103.8 139.571 100.229 136.944 97.0417 133.521H104.302C106.309 135.174 108.729 136.531 111.562 137.594C114.396 138.656 117.347 139.187 120.417 139.187C127.5 139.187 133.58 136.649 138.656 131.573C143.733 126.497 146.271 120.417 146.271 113.333C146.271 106.25 143.733 100.17 138.656 95.0937C133.58 90.0173 127.5 87.4791 120.417 87.4791C118.41 87.4791 116.55 87.6857 114.839 88.0989C113.127 88.5121 111.444 89.0729 109.792 89.7812L90.4896 57.5521C88.0104 58.1423 85.7083 57.6406 83.5833 56.0469C81.4583 54.4531 80.3958 52.2986 80.3958 49.5833C80.3958 47.3403 81.1927 45.4219 82.7865 43.8281C84.3802 42.2344 86.2986 41.4375 88.5417 41.4375C90.7847 41.4375 92.7031 42.2344 94.2969 43.8281C95.8906 45.4219 96.6875 47.3403 96.6875 49.5833C96.6875 50.5278 96.5104 51.4722 96.1562 52.4166C95.8021 53.3611 95.3299 54.1285 94.7396 54.7187L111.917 83.5833C113.215 83.3472 114.543 83.1111 115.901 82.875C117.259 82.6389 118.764 82.5208 120.417 82.5208C128.917 82.5208 136.177 85.5312 142.198 91.5521C148.219 97.5729 151.229 104.833 151.229 113.333C151.229 121.833 148.219 129.094 142.198 135.115C136.177 141.135 128.917 144.146 120.417 144.146ZM49.5833 121.479C47.3403 121.479 45.4219 120.682 43.8281 119.089C42.2344 117.495 41.4375 115.576 41.4375 113.333C41.4375 110.972 42.3524 108.906 44.1823 107.135C46.0122 105.365 48.4618 104.774 51.5313 105.365L70.125 74.375C65.9931 71.3055 62.8941 67.6163 60.8281 63.3073C58.7622 58.9982 57.7292 54.4236 57.7292 49.5833C57.7292 41.0833 60.7396 33.8229 66.7604 27.8021C72.7813 21.7812 80.0417 18.7708 88.5417 18.7708C97.0417 18.7708 104.302 21.7812 110.323 27.8021C116.344 33.8229 119.354 41.0833 119.354 49.5833H114.396C114.396 42.5 111.858 36.4201 106.781 31.3437C101.705 26.2673 95.625 23.7291 88.5417 23.7291C81.4583 23.7291 75.3785 26.2673 70.3021 31.3437C65.2257 36.4201 62.6875 42.5 62.6875 49.5833C62.6875 54.5416 63.9271 58.9982 66.4063 62.9531C68.8854 66.908 72.3681 70.184 76.8542 72.7812L55.7813 108.021C56.3715 108.729 56.8438 109.556 57.1979 110.5C57.5521 111.444 57.7292 112.389 57.7292 113.333C57.7292 115.576 56.9323 117.495 55.3385 119.089C53.7448 120.682 51.8264 121.479 49.5833 121.479Z" fill="white"/>
</g>
</svg>
