<svg id="spin_circle" data-name="spin circle" xmlns="http://www.w3.org/2000/svg" xmlns:xlink="http://www.w3.org/1999/xlink" width="184.582" height="184.584" viewBox="0 0 184.582 184.584">
  <defs>
    <clipPath id="clip-path">
      <rect id="사각형_19" data-name="사각형 19" width="184.582" height="184.584" fill="none"/>
    </clipPath>
  </defs>
  <path id="패스_46" data-name="패스 46" d="M153.359,22.514l-6.671-8.593.852-.276,5.926,7.658.312-9.678.852-.276-.381,10.877Z" transform="translate(-86.329 -6.679)"/>
  <g id="그룹_3" data-name="그룹 3">
    <g id="그룹_2" data-name="그룹 2" clip-path="url(#clip-path)">
      <path id="패스_47" data-name="패스 47" d="M175.2,23.091c-2.041.462-3.334-.716-3.861-3.04s.13-3.957,2.171-4.42,3.321.719,3.851,3.056S177.241,22.629,175.2,23.091Zm-.154-.681c1.553-.352,1.971-1.607,1.532-3.546s-1.36-2.9-2.913-2.553-1.984,1.61-1.542,3.562S173.479,22.765,175.046,22.41Z" transform="translate(-100.734 -9.141)"/>
      <path id="패스_48" data-name="패스 48" d="M188.087,7.934l-.214-1.326.806-.13.215,1.326Zm1.42,8.773L188.34,9.494l.806-.13,1.167,7.213Z" transform="translate(-110.567 -3.812)"/>
      <path id="패스_49" data-name="패스 49" d="M197.272,14.628c.131,1.151.66,1.37,1.667,1.255l.72-.082.077.681c-.273.044-.574.079-.823.107-1.518.172-2.252-.221-2.424-1.739l-.532-4.685-1.1.125-.079-.693,1.1-.125L195.642,7.4l.8-.091.235,2.068,2.224-.253.079.693-2.224.253Z" transform="translate(-114.63 -4.304)"/>
      <path id="패스_50" data-name="패스 50" d="M208.833,11.008l.816-.031.163,4.264c.067,1.764.754,2.489,2.03,2.44,1.342-.051,2.273-1.22,2.212-3.168l-.141-3.7.816-.031.279,7.3-.816.031-.054-1.408a2.466,2.466,0,0,1-2.427,1.674c-1.685.065-2.634-.993-2.705-2.862Z" transform="translate(-122.902 -6.346)"/>
      <path id="패스_51" data-name="패스 51" d="M228.872,14.47l-.132,3.685-.8-.029.261-7.3.8.028-.05,1.408a2.363,2.363,0,0,1,2.779-1.429l-.038.684c-.118-.017-.328-.038-.539-.046C229.838,11.422,228.947,12.4,228.872,14.47Z" transform="translate(-134.146 -6.33)"/>
      <path id="패스_52" data-name="패스 52" d="M239.5,15.478c-.158,1.85.439,2.947,1.984,3.112a1.9,1.9,0,0,0,2.238-1.363l.825.088a2.678,2.678,0,0,1-3.15,1.967c-2.081-.223-2.925-1.743-2.671-4.126s1.4-3.7,3.484-3.48,2.911,1.755,2.656,4.137l-.026.236Zm.1-.665,4.5.481c.1-1.71-.5-2.768-1.964-2.924S239.845,13.118,239.6,14.813Z" transform="translate(-140.469 -6.857)"/>
      <path id="패스_53" data-name="패스 53" d="M270.119,10.612l1.061,10.834-.868-.222-.247-2.7-4.606-1.179-1.5,2.253-.867-.222,6.122-9ZM265.9,16.7l4.1,1.048-.559-6.315Z" transform="translate(-154.834 -6.109)"/>
    </g>
  </g>
  <path id="패스_54" data-name="패스 54" d="M288.091,21.317l.767.28L287.4,25.6c-.6,1.657-.244,2.588.956,3.026,1.262.46,2.565-.269,3.246-2.1l1.269-3.476.767.28L291.127,30.2l-.767-.28.483-1.323a2.465,2.465,0,0,1-2.88.631c-1.583-.578-2.062-1.916-1.421-3.672Z" transform="translate(-168.473 -12.545)"/>
  <path id="패스_55" data-name="패스 55" d="M305.281,31.388c-.48,1.055-.139,1.514.783,1.934l.659.3-.284.623c-.257-.1-.533-.228-.761-.332-1.39-.633-1.817-1.348-1.184-2.738l1.953-4.291-1.007-.458.289-.635,1.007.458.862-1.894.731.333-.862,1.894,2.038.927-.289.635-2.038-.927Z" transform="translate(-179.033 -14.333)"/>
  <path id="패스_56" data-name="패스 56" d="M315.571,42.7c-1.837-1.006-2.026-2.745-.881-4.836s2.718-2.882,4.555-1.876,2.014,2.739.863,4.841S317.408,43.706,315.571,42.7Zm.335-.612c1.4.765,2.542.1,3.5-1.644s.9-3.078-.494-3.844-2.554-.107-3.515,1.65S314.5,41.317,315.906,42.088Z" transform="translate(-184.781 -20.923)"/>
  <path id="패스_57" data-name="패스 57" d="M337.937,50.63a1.68,1.68,0,0,0-.282-2.625c-.976-.695-2.361-.339-3.544,1.325L332,52.3l-.665-.473,2.787-3.916c.763-1.073.63-1.976-.282-2.625-.976-.695-2.361-.339-3.545,1.325l-2.115,2.973-.655-.466,4.237-5.955.654.466-.809,1.137a2.233,2.233,0,0,1,2.754.036,2.175,2.175,0,0,1,.868,2.687,2.435,2.435,0,0,1,2.963.039c1.245.886,1.414,2.17.421,3.565l-2.794,3.928-.665-.474Z" transform="translate(-192.752 -25.402)"/>
  <path id="패스_58" data-name="패스 58" d="M353.691,70.156c-1.553-1.4-1.332-3.14.267-4.908s3.313-2.17,4.865-.765,1.322,3.131-.286,4.908S355.243,71.561,353.691,70.156Zm.468-.518c1.181,1.069,2.449.689,3.783-.786s1.595-2.783.414-3.852-2.459-.7-3.8.786S352.968,68.561,354.159,69.639Z" transform="translate(-207.533 -37.45)"/>
  <path id="패스_59" data-name="패스 59" d="M363.949,77.256l-.544-.591,7.528-6.927.544.591-3.061,2.817a2.327,2.327,0,0,1,2.641.79c1.32,1.434,1.055,3.11-.786,4.8s-3.523,1.811-4.842.377a2.336,2.336,0,0,1-.578-2.689Zm6.541-2.906c-1.088-1.182-2.385-.919-3.857.437s-1.832,2.617-.745,3.8,2.375.909,3.839-.437S371.568,75.523,370.49,74.35Z" transform="translate(-213.871 -41.042)"/>
  <path id="패스_60" data-name="패스 60" d="M375.8,91.328l5.68-4.6.514.634-5.68,4.6Zm6.908-5.59,1.044-.845.514.634-1.044.845Z" transform="translate(-221.165 -49.961)"/>
  <rect id="사각형_20" data-name="사각형 20" width="10.233" height="0.817" transform="translate(156.33 43.513) rotate(-37.056)"/>
  <path id="패스_61" data-name="패스 61" d="M388.087,104.775c-1.527,1.057-1.991,2.217-1.134,3.512a1.9,1.9,0,0,0,2.477.856l.458.692a2.678,2.678,0,0,1-3.523-1.174c-1.155-1.746-.521-3.365,1.478-4.687s3.748-1.279,4.9.467.5,3.361-1.5,4.684l-.2.13Zm.575-.349,2.5,3.777c1.384-1.01,1.815-2.148,1-3.378S390.126,103.536,388.662,104.426Z" transform="translate(-227.045 -60.646)"/>
  <path id="패스_62" data-name="패스 62" d="M399.883,131.66l6.188-6.748-7.671,3.429-.344-.77L407.4,123.4l.382.854-6.837,7.456,10.111-.134.382.854-9.342,4.176-.344-.77,7.671-3.429-9.155.11Z" transform="translate(-234.263 -72.621)"/>
  <path id="패스_63" data-name="패스 63" d="M416.692,154.225l.241.779-4.074,1.262c-1.685.521-2.208,1.372-1.83,2.592.4,1.283,1.766,1.879,3.632,1.315l3.534-1.094.242.78-6.98,2.16-.241-.779,1.346-.417a2.465,2.465,0,0,1-2.245-1.91c-.5-1.61.277-2.8,2.063-3.354Z" transform="translate(-241.391 -90.764)"/>
  <g id="그룹_5" data-name="그룹 5">
    <g id="그룹_4" data-name="그룹 4" clip-path="url(#clip-path)">
      <path id="패스_64" data-name="패스 64" d="M418.446,176.236c-.021-1.6.427-2.328,1.483-2.556,1.094-.236,2.166.489,2.516,2.111.342,1.583-.29,2.716-1.422,2.96l-.219.047-.172-.8.219-.047c.734-.158,1.151-.908.912-2.015s-.928-1.618-1.662-1.46c-.669.144-.936.66-.921,1.788l.009.914c.006,1.588-.428,2.328-1.573,2.575-1.21.261-2.271-.6-2.626-2.249-.347-1.609.231-2.865,1.467-3.131l.258-.056.169.785-.258.056c-.837.18-1.192,1.092-.953,2.2s.938,1.791,1.775,1.611c.734-.158,1.028-.666,1.008-1.82Z" transform="translate(-244.17 -102.189)"/>
      <path id="패스_65" data-name="패스 65" d="M421.155,191.616c-1.837.273-2.767,1.108-2.571,2.65a1.9,1.9,0,0,0,1.843,1.864l.1.823a2.679,2.679,0,0,1-2.641-2.613c-.264-2.077,1.022-3.249,3.4-3.551s3.928.511,4.192,2.588-1.037,3.238-3.414,3.54l-.235.03Zm.669-.058.57,4.495c1.689-.294,2.579-1.124,2.394-2.587S423.531,191.407,421.824,191.558Z" transform="translate(-245.916 -112.247)"/>
      <path id="패스_66" data-name="패스 66" d="M426.725,209.527l.028.816-4.264.149c-1.764.061-2.491.745-2.446,2.022.047,1.342,1.213,2.277,3.161,2.222l3.7-.129.028.816-7.3.254-.028-.816,1.408-.049a2.465,2.465,0,0,1-1.666-2.432c-.059-1.685,1-2.631,2.871-2.7Z" transform="translate(-246.788 -123.311)"/>
      <path id="패스_67" data-name="패스 67" d="M423.072,238.091c1.312.109,2.022-.48,2.113-1.582.1-1.194-.914-2.2-2.948-2.371l-3.635-.3.067-.814,4.79.4c1.312.109,2.02-.467,2.113-1.583.1-1.194-.914-2.2-2.948-2.371l-3.635-.3.066-.8,7.283.6-.066.8-1.391-.115a2.233,2.233,0,0,1,1.375,2.386,2.175,2.175,0,0,1-1.867,2.118,2.434,2.434,0,0,1,1.479,2.566c-.126,1.522-1.144,2.323-2.849,2.182l-4.8-.4.067-.814Z" transform="translate(-246.127 -134.396)"/>
      <path id="패스_68" data-name="패스 68" d="M413.126,269.22c.549-2.143,2.056-2.981,3.6-2.585l.293.075-.209.817-.306-.079c-1.161-.3-2.261.386-2.663,1.955s.233,2.7,1.394,3c1.059.272,1.889-.155,2.571-1.543l.6-1.207c.718-1.475,1.77-2.129,3.186-1.766,1.442.37,2.354,1.745,1.834,3.774s-1.985,2.809-3.426,2.439l-.217-.056.209-.816.217.056c1.136.291,2.114-.342,2.49-1.809s-.18-2.48-1.316-2.771c-1.033-.265-1.771.226-2.321,1.363l-.6,1.207c-.838,1.73-1.969,2.324-3.424,1.95C413.494,272.822,412.577,271.363,413.126,269.22Z" transform="translate(-243.038 -156.863)"/>
    </g>
  </g>
  <path id="패스_69" data-name="패스 69" d="M410.088,284.562l6.942,2.286-.256.776-6.941-2.286Zm8.442,2.78,1.276.42-.255.775-1.276-.42Z" transform="translate(-241.194 -167.47)"/>
  <path id="패스_70" data-name="패스 70" d="M403.2,296.057l.3-.746,3.947,1.586c1.637.658,2.6.32,3.068-.853.5-1.246-.186-2.573-2-3.328l-3.421-1.375.3-.746,6.781,2.725-.3.745-1.32-.53a2.493,2.493,0,0,1,.546,2.915c-.624,1.552-1.989,1.983-3.712,1.29Z" transform="translate(-237.288 -171.021)"/>
  <path id="패스_71" data-name="패스 71" d="M404.253,314.451a2.687,2.687,0,0,1-3.577,1.5l.378-.738a1.935,1.935,0,0,0,2.578-1.076c.732-1.43.049-2.549-1.744-3.467s-3.089-.813-3.821.616a1.925,1.925,0,0,0,.621,2.714l-.378.738a2.686,2.686,0,0,1-.864-3.77c.954-1.863,2.664-2.111,4.808-1.013S405.208,312.588,404.253,314.451Z" transform="translate(-233.658 -182.027)"/>
  <path id="패스_72" data-name="패스 72" d="M393.018,326.1c-1.592-.956-2.839-.9-3.668.412a1.9,1.9,0,0,0,.239,2.609l-.442.7a2.679,2.679,0,0,1-.38-3.694c1.116-1.771,2.853-1.859,4.88-.582s2.708,2.889,1.592,4.66-2.856,1.841-4.884.563l-.2-.126Zm.554.38-2.415,3.832c1.49.846,2.7.771,3.491-.477S394.984,327.452,393.572,326.483Z" transform="translate(-228.466 -191.082)"/>
  <path id="패스_73" data-name="패스 73" d="M372.4,351.223l7.156,6.04.81-2.8.624.527-.829,2.9-.467.554-7.82-6.6Z" transform="translate(-218.852 -206.701)"/>
  <path id="패스_74" data-name="패스 74" d="M362.711,362.811a1.842,1.842,0,0,0-2.665.156c-1.2,1.169-.746,2.478,1.389,4.719a2.491,2.491,0,0,1,.794-2.6c1.337-1.307,3.105-1.212,4.578.295a3.073,3.073,0,0,1,.124,4.63,2.794,2.794,0,0,1-3.285.651,7.489,7.489,0,0,1-2.123-1.682l-.156-.16c-3.056-3.127-3.39-4.844-1.817-6.381a2.62,2.62,0,0,1,3.774-.227Zm3.5,3.15c-1.187-1.215-2.537-1.277-3.535-.3s-.958,2.317.23,3.532,2.528,1.268,3.516.3S367.392,367.167,366.213,365.962Z" transform="translate(-211.058 -212.759)"/>
  <path id="패스_75" data-name="패스 75" d="M348.342,375.879a1.842,1.842,0,0,0-2.668-.1c-1.3,1.049-.979,2.4.932,4.83a2.49,2.49,0,0,1,1.038-2.511c1.456-1.173,3.207-.91,4.529.73a3.072,3.072,0,0,1-.319,4.62,2.794,2.794,0,0,1-3.332.335,7.476,7.476,0,0,1-1.952-1.877l-.141-.174c-2.743-3.4-2.912-5.145-1.2-6.525a2.62,2.62,0,0,1,3.778.135Zm3.186,3.47c-1.066-1.323-2.4-1.513-3.49-.637s-1.174,2.215-.109,3.537,2.4,1.5,3.472.636S352.585,380.662,351.527,379.35Z" transform="translate(-202.521 -220.382)"/>
  <path id="패스_76" data-name="패스 76" d="M333.457,387.065a2.588,2.588,0,0,1-.221,3.33,2.4,2.4,0,0,1,2.733,1.039c.854,1.3.491,2.83-1.06,3.851s-3.1.749-3.956-.55a2.4,2.4,0,0,1,.127-2.921,2.6,2.6,0,0,1-3.156-1.107c-1.006-1.529-.478-3.169,1.172-4.255S332.451,385.536,333.457,387.065Zm-1.487,3.753a2.269,2.269,0,1,0-3.324-.524A2.242,2.242,0,0,0,331.97,390.818Zm-.364,3.424a2.2,2.2,0,1,0,.755-2.83A1.967,1.967,0,0,0,331.606,394.242Z" transform="translate(-192.689 -227.024)"/>
  <path id="패스_77" data-name="패스 77" d="M289.848,408.18l6.924,8.391-.843.3-6.151-7.479-.025,9.683-.843.3.058-10.883Z" transform="translate(-170.029 -240.221)"/>
  <g id="그룹_7" data-name="그룹 7">
    <g id="그룹_6" data-name="그룹 6" clip-path="url(#clip-path)">
      <path id="패스_78" data-name="패스 78" d="M270.078,413.12c2.027-.524,3.354.615,3.951,2.922s-.009,3.96-2.036,4.484-3.342-.618-3.942-2.938S268.051,413.644,270.078,413.12Zm.174.676c-1.542.4-1.922,1.666-1.424,3.591s1.447,2.862,2.989,2.463,1.934-1.67,1.433-3.607S271.807,413.393,270.253,413.8Z" transform="translate(-157.623 -243.055)"/>
      <path id="패스_79" data-name="패스 79" d="M261.369,416.189l1.383,7.175-.8.154-1.383-7.175Zm1.683,8.726.254,1.318-.8.155-.254-1.319Z" transform="translate(-153.348 -244.935)"/>
      <path id="패스_80" data-name="패스 80" d="M250.08,419.893c-.165-1.147-.7-1.35-1.7-1.2l-.717.1-.1-.678c.272-.052.572-.1.819-.131,1.512-.218,2.258.154,2.475,1.666l.672,4.666,1.095-.158.1.691-1.095.158.3,2.059-.8.114-.3-2.059-2.216.319-.1-.691,2.216-.319Z" transform="translate(-145.695 -245.957)"/>
      <path id="패스_81" data-name="패스 81" d="M237,426.261l-.815.055-.289-4.256c-.119-1.76-.827-2.464-2.1-2.378-1.34.091-2.235,1.287-2.116,3.231l.251,3.691-.814.055-.5-7.29.814-.055.1,1.405a2.465,2.465,0,0,1,2.375-1.745c1.681-.114,2.662.915,2.788,2.78Z" transform="translate(-135.725 -246.57)"/>
      <path id="패스_82" data-name="패스 82" d="M220.453,423.627l.06-3.687.8.013-.118,7.308-.8-.013.023-1.409a2.361,2.361,0,0,1-2.75,1.483l.024-.685c.119.015.329.032.539.035C219.547,426.694,220.42,425.694,220.453,423.627Z" transform="translate(-128.101 -247.142)"/>
      <path id="패스_83" data-name="패스 83" d="M206.271,422.647c.1-1.854-.527-2.933-2.076-3.052a1.9,1.9,0,0,0-2.2,1.429l-.827-.064a2.679,2.679,0,0,1,3.091-2.06c2.087.161,2.976,1.656,2.792,4.045s-1.292,3.744-3.379,3.583-2.962-1.668-2.778-4.057l.018-.236Zm-.078.668-4.516-.348c-.053,1.713.581,2.752,2.051,2.865S206,425.017,206.193,423.315Z" transform="translate(-118.217 -246.523)"/>
      <path id="패스_84" data-name="패스 84" d="M172.856,423.774l-1.388-10.793.874.2.329,2.69,4.637,1.038,1.432-2.3.874.2-5.844,9.174Zm4.033-6.206-4.123-.923.75,6.292Z" transform="translate(-100.912 -243.047)"/>
    </g>
  </g>
  <path id="패스_85" data-name="패스 85" d="M156.756,409.46c1.989.655,2.49,2.331,1.745,4.6s-2.149,3.327-4.138,2.672-2.478-2.327-1.728-4.6S154.767,408.805,156.756,409.46Zm-.218.663c-1.513-.5-2.518.363-3.14,2.252s-.33,3.191,1.183,3.689,2.531-.359,3.156-2.26S158.064,410.625,156.538,410.123Z" transform="translate(-89.632 -240.862)"/>
  <path id="패스_86" data-name="패스 86" d="M142.316,405.87c.443-1.071.086-1.518-.851-1.906l-.669-.277.262-.633c.261.094.541.209.772.305,1.411.584,1.863,1.284,1.279,2.7l-1.8,4.356,1.022.423-.267.645-1.022-.423-.8,1.923-.742-.307.8-1.922-2.069-.856.267-.645,2.069.856Z" transform="translate(-81.35 -237.205)"/>
  <path id="패스_87" data-name="패스 87" d="M129.405,398.261c1.871.94,2.12,2.673,1.05,4.8s-2.615,2.975-4.486,2.034-2.109-2.667-1.032-4.808S127.534,397.321,129.405,398.261Zm-.314.624c-1.424-.716-2.544-.012-3.437,1.765s-.8,3.108.628,3.823,2.556.017,3.455-1.771S130.527,399.606,129.092,398.885Z" transform="translate(-73.15 -234.159)"/>
  <path id="패스_88" data-name="패스 88" d="M99.657,385.267a1.68,1.68,0,0,0,.373,2.614c1,.66,2.371.256,3.5-1.446l2.01-3.044.681.45-2.65,4.011c-.725,1.1-.561,2,.373,2.613,1,.661,2.371.257,3.5-1.446l2.01-3.044.67.443-4.028,6.1-.67-.443.769-1.164a2.234,2.234,0,0,1-2.754.059,2.175,2.175,0,0,1-.961-2.655,2.435,2.435,0,0,1-2.962.063c-1.274-.842-1.488-2.119-.544-3.547l2.657-4.022.681.45Z" transform="translate(-57.901 -224.112)"/>
  <path id="패스_89" data-name="패스 89" d="M89.818,372.451c1.6,1.35,1.44,3.092-.1,4.914s-3.235,2.284-4.835.934-1.43-3.084.115-4.916S88.218,371.1,89.818,372.451Zm-.45.534c-1.218-1.027-2.471-.6-3.753.917s-1.5,2.837-.279,3.864,2.481.611,3.772-.918S90.6,374.02,89.368,372.984Z" transform="translate(-49.295 -218.735)"/>
  <path id="패스_90" data-name="패스 90" d="M77.377,361.456l.564.572-7.284,7.186-.564-.572,2.962-2.922a2.328,2.328,0,0,1-2.668-.7c-1.369-1.388-1.162-3.071.619-4.829s3.458-1.932,4.827-.545a2.337,2.337,0,0,1,.671,2.668Zm-6.437,3.132c1.128,1.144,2.415.836,3.84-.57s1.741-2.679.612-3.823-2.406-.826-3.821.57S69.821,363.454,70.94,364.588Z" transform="translate(-40.899 -211.117)"/>
  <path id="패스_91" data-name="패스 91" d="M58.659,358.2l-1.014.881-.535-.616,1.014-.881Zm6.709-5.827-5.516,4.791-.535-.616,5.516-4.792Z" transform="translate(-33.61 -207.017)"/>
  <rect id="사각형_23" data-name="사각형 23" width="10.232" height="0.816" transform="translate(21.519 149.073) rotate(-39.04)"/>
  <path id="패스_92" data-name="패스 92" d="M53.816,339.484c1.489-1.109,1.913-2.285,1.011-3.55a1.9,1.9,0,0,0-2.505-.769l-.481-.676A2.678,2.678,0,0,1,55.4,335.54c1.215,1.705.637,3.345-1.314,4.736s-3.7,1.409-4.916-.3-.619-3.342,1.332-4.733l.193-.137Zm-.562.368-2.629-3.689c-1.348,1.057-1.74,2.21-.884,3.411S51.822,340.792,53.254,339.852Z" transform="translate(-28.569 -196.675)"/>
  <path id="패스_93" data-name="패스 93" d="M32.44,304.283l-5.949,6.958,7.547-3.693.37.757-9.191,4.5-.411-.84,6.574-7.689-10.1.485-.411-.84,9.191-4.5.37.757-7.547,3.693,9.145-.429Z" transform="translate(-12.282 -176.215)"/>
  <path id="패스_94" data-name="패스 94" d="M22.324,289.919l-.269-.771,4.028-1.4c1.666-.581,2.158-1.449,1.738-2.655-.442-1.268-1.832-1.815-3.676-1.187l-3.493,1.217-.269-.771,6.9-2.4.269.771-1.33.463a2.465,2.465,0,0,1,2.31,1.83c.555,1.591-.178,2.809-1.943,3.424Z" transform="translate(-11.996 -165.93)"/>
  <g id="그룹_9" data-name="그룹 9">
    <g id="그룹_8" data-name="그룹 8" clip-path="url(#clip-path)">
      <path id="패스_95" data-name="패스 95" d="M20.822,270.358c.077,1.6-.346,2.341-1.393,2.605-1.085.274-2.182-.414-2.587-2.022-.4-1.57.2-2.724,1.318-3.008l.217-.055.2.792-.217.055c-.728.184-1.118.947-.841,2.045s.984,1.585,1.711,1.4c.664-.167.911-.692.858-1.818l-.04-.913c-.061-1.587.346-2.341,1.482-2.628,1.2-.3,2.29.522,2.7,2.156.4,1.6-.131,2.871-1.356,3.18l-.255.065-.2-.779.256-.064c.83-.209,1.153-1.133.876-2.231s-1-1.757-1.829-1.548c-.728.184-1,.7-.944,1.854Z" transform="translate(-9.839 -156.988)"/>
      <path id="패스_96" data-name="패스 96" d="M17.556,255.031c1.826-.337,2.726-1.2,2.477-2.736a1.9,1.9,0,0,0-1.906-1.8l-.133-.818a2.678,2.678,0,0,1,2.73,2.518c.335,2.066-.908,3.282-3.273,3.666s-3.942-.374-4.278-2.44.923-3.271,3.289-3.655l.234-.038Zm-.667.081-.726-4.471c-1.677.352-2.538,1.212-2.3,2.668S15.188,255.322,16.889,255.113Z" transform="translate(-7.721 -146.94)"/>
      <path id="패스_97" data-name="패스 97" d="M11.329,237.309l-.056-.814,4.256-.3c1.76-.122,2.463-.83,2.375-2.1-.093-1.34-1.29-2.233-3.235-2.112l-3.691.256-.057-.814,7.29-.505.056.814-1.406.1A2.464,2.464,0,0,1,18.61,234.2c.116,1.681-.911,2.663-2.776,2.793Z" transform="translate(-6.427 -135.901)"/>
      <path id="패스_98" data-name="패스 98" d="M13.463,202.571c-1.315-.064-2,.549-2.057,1.654-.058,1.2.99,2.171,3.029,2.268l3.644.176-.039.816-4.8-.231c-1.316-.063-2,.536-2.057,1.654-.058,1.2.99,2.171,3.029,2.269l3.644.176-.039.8-7.3-.352.039-.8,1.394.067a2.234,2.234,0,0,1-1.456-2.338,2.175,2.175,0,0,1,1.793-2.181,2.436,2.436,0,0,1-1.567-2.515c.074-1.526,1.063-2.361,2.773-2.279l4.814.232-.04.816Z" transform="translate(-6.171 -118.733)"/>
      <path id="패스_99" data-name="패스 99" d="M18.65,175.408c-.474,2.16-1.949,3.049-3.5,2.708l-.3-.065.18-.823.309.067c1.17.257,2.245-.465,2.592-2.046s-.328-2.686-1.5-2.943c-1.067-.234-1.881.221-2.514,1.632l-.552,1.227c-.665,1.5-1.693,2.189-3.12,1.876-1.453-.318-2.412-1.661-1.964-3.705s1.884-2.875,3.337-2.557l.218.048-.18.823-.219-.048c-1.144-.251-2.1.416-2.423,1.894s.267,2.471,1.411,2.722c1.041.228,1.761-.288,2.271-1.443l.552-1.227c.776-1.757,1.885-2.39,3.351-2.069C18.155,171.822,19.123,173.247,18.65,175.408Z" transform="translate(-4.809 -100.468)"/>
    </g>
  </g>
  <path id="패스_100" data-name="패스 100" d="M13.55,162.817l-1.29-.375.228-.784,1.29.375Zm8.536,2.484-7.018-2.042.228-.784,7.018,2.042Z" transform="translate(-7.215 -95.139)"/>
  <path id="패스_101" data-name="패스 101" d="M30.02,148.393l-.273.755-4-1.446c-1.659-.6-2.606-.228-3.035.96-.457,1.263.277,2.564,2.113,3.256l3.467,1.253-.273.755-6.872-2.485.273-.755,1.337.483a2.493,2.493,0,0,1-.648-2.894c.569-1.572,1.918-2.05,3.663-1.419Z" transform="translate(-12.445 -86.27)"/>
  <path id="패스_102" data-name="패스 102" d="M30.209,130.829a2.689,2.689,0,0,1,3.524-1.62l-.352.751a1.936,1.936,0,0,0-2.54,1.165c-.682,1.455.04,2.55,1.864,3.406s3.117.706,3.8-.748a1.926,1.926,0,0,0-.715-2.692l.352-.751a2.687,2.687,0,0,1,.995,3.74c-.89,1.9-2.591,2.2-4.772,1.18S29.319,132.725,30.209,130.829Z" transform="translate(-17.575 -75.936)"/>
  <path id="패스_103" data-name="패스 103" d="M41.085,118.7c1.624.9,2.869.8,3.651-.54a1.9,1.9,0,0,0-.33-2.6l.417-.717a2.678,2.678,0,0,1,.509,3.678c-1.053,1.809-2.786,1.958-4.856.753s-2.807-2.792-1.754-4.6,2.79-1.94,4.86-.734l.2.119Zm-.567-.36,2.279-3.914c-1.519-.793-2.73-.676-3.472.6S39.072,117.419,40.518,118.337Z" transform="translate(-22.508 -66.591)"/>
  <path id="패스_104" data-name="패스 104" d="M58.638,92.641l-7.357-5.786-.712,2.823-.642-.5.728-2.927.448-.569L59.142,92Z" transform="translate(-29.383 -50.423)"/>
  <path id="패스_105" data-name="패스 105" d="M67.509,77.519a1.842,1.842,0,0,0,2.658-.248c1.155-1.209.659-2.5-1.552-4.667a2.489,2.489,0,0,1-.7,2.624c-1.291,1.353-3.061,1.319-4.586-.135a3.072,3.072,0,0,1-.284-4.622,2.794,2.794,0,0,1,3.261-.765,7.487,7.487,0,0,1,2.179,1.607l.162.154c3.162,3.019,3.556,4.723,2.037,6.314a2.619,2.619,0,0,1-3.763.358ZM63.9,74.492c1.229,1.173,2.58,1.188,3.543.178s.877-2.349-.352-3.521-2.57-1.179-3.525-.179S62.68,73.329,63.9,74.492Z" transform="translate(-36.562 -40.885)"/>
  <path id="패스_106" data-name="패스 106" d="M81.9,63.522a1.842,1.842,0,0,0,2.669.007c1.264-1.094.894-2.428-1.1-4.794a2.489,2.489,0,0,1-.95,2.545C81.1,62.5,79.344,62.3,77.966,60.708a3.072,3.072,0,0,1,.157-4.628,2.793,2.793,0,0,1,3.319-.451,7.475,7.475,0,0,1,2.016,1.807l.146.169c2.86,3.306,3.089,5.041,1.426,6.479a2.619,2.619,0,0,1-3.78,0Zm-3.3-3.357c1.111,1.285,2.454,1.429,3.51.515s1.1-2.254-.014-3.539-2.446-1.418-3.491-.514S77.49,58.891,78.593,60.165Z" transform="translate(-45.313 -32.53)"/>
  <path id="패스_107" data-name="패스 107" d="M96.307,51.173a2.588,2.588,0,0,1,.1-3.335,2.4,2.4,0,0,1-2.767-.944c-.9-1.267-.589-2.811.926-3.885s3.074-.855,3.973.412a2.4,2.4,0,0,1-.026,2.924,2.6,2.6,0,0,1,3.193,1c1.059,1.493.587,3.151-1.024,4.293S97.365,52.666,96.307,51.173Zm1.6-7.237a2.2,2.2,0,1,0-.656,2.854A1.967,1.967,0,0,0,97.908,43.936Zm-.245,3.435a2.269,2.269,0,1,0,3.34.408A2.241,2.241,0,0,0,97.663,47.371Z" transform="translate(-54.817 -24.907)"/>
  <g id="그룹_11" data-name="그룹 11">
    <g id="그룹_10" data-name="그룹 10" clip-path="url(#clip-path)">
      <path id="패스_108" data-name="패스 108" d="M202.826,182.566a15.895,15.895,0,1,0,15.895,15.895,15.895,15.895,0,0,0-15.895-15.895m0,26.491a10.6,10.6,0,1,1,10.6-10.6,10.608,10.608,0,0,1-10.6,10.6" transform="translate(-110.012 -107.443)" fill="#0a0f11"/>
      <path id="패스_109" data-name="패스 109" d="M238.511,208.107a2.451,2.451,0,0,0,1.684,4.066l1.461.093a8.82,8.82,0,0,0-2.179-5.255Z" transform="translate(-140.006 -121.829)" fill="#0a0f11"/>
      <path id="패스_110" data-name="패스 110" d="M212.472,234.147l-1.1.966a8.82,8.82,0,0,0,5.255,2.179l-.093-1.461a2.451,2.451,0,0,0-4.066-1.684" transform="translate(-124.398 -137.438)" fill="#0a0f11"/>
      <path id="패스_111" data-name="패스 111" d="M207.228,208.108l-.966-1.1a8.812,8.812,0,0,0-2.179,5.255l1.461-.093a2.451,2.451,0,0,0,1.684-4.066" transform="translate(-120.107 -121.83)" fill="#0a0f11"/>
      <path id="패스_112" data-name="패스 112" d="M205.543,222.7l-1.461-.093a8.817,8.817,0,0,0,2.179,5.255l.966-1.1a2.451,2.451,0,0,0-1.684-4.066" transform="translate(-120.106 -131.008)" fill="#0a0f11"/>
      <path id="패스_113" data-name="패스 113" d="M216.538,201.178l.093-1.461a8.82,8.82,0,0,0-5.255,2.179l1.1.966a2.451,2.451,0,0,0,4.066-1.684" transform="translate(-124.398 -117.537)" fill="#0a0f11"/>
      <path id="패스_114" data-name="패스 114" d="M238.511,226.764l.966,1.1a8.816,8.816,0,0,0,2.18-5.255l-1.461.093a2.451,2.451,0,0,0-1.684,4.066" transform="translate(-140.006 -131.008)" fill="#0a0f11"/>
      <path id="패스_115" data-name="패스 115" d="M227.063,235.83l-.093,1.461a8.819,8.819,0,0,0,5.255-2.179l-1.1-.966a2.451,2.451,0,0,0-4.066,1.684" transform="translate(-133.576 -137.437)" fill="#0a0f11"/>
      <path id="패스_116" data-name="패스 116" d="M231.129,202.862l1.1-.966a8.818,8.818,0,0,0-5.255-2.179l.093,1.461a2.451,2.451,0,0,0,4.066,1.684" transform="translate(-133.577 -117.537)" fill="#0a0f11"/>
      <path id="패스_117" data-name="패스 117" d="M223.257,217.283a1.609,1.609,0,1,0,1.609,1.609,1.609,1.609,0,0,0-1.609-1.609" transform="translate(-130.444 -127.875)" fill="#0a0f11"/>
      <path id="패스_118" data-name="패스 118" d="M224.681,211.64a.614.614,0,1,0-.614-.614.614.614,0,0,0,.614.614" transform="translate(-131.868 -123.832)" fill="#0a0f11"/>
      <path id="패스_119" data-name="패스 119" d="M224.681,228.992a.614.614,0,1,0,.614.614.614.614,0,0,0-.614-.614" transform="translate(-131.868 -134.766)" fill="#0a0f11"/>
      <path id="패스_120" data-name="패스 120" d="M231.683,214.181a.614.614,0,1,0-.868,0,.614.614,0,0,0,.868,0" transform="translate(-135.733 -125.433)" fill="#0a0f11"/>
      <path id="패스_121" data-name="패스 121" d="M218.546,227.318a.614.614,0,1,0-.868,0,.613.613,0,0,0,.868,0" transform="translate(-128.002 -133.165)" fill="#0a0f11"/>
      <path id="패스_122" data-name="패스 122" d="M233.97,220.93a.614.614,0,1,0-.614-.614.614.614,0,0,0,.614.614" transform="translate(-137.334 -129.299)" fill="#0a0f11"/>
      <path id="패스_123" data-name="패스 123" d="M215.392,219.7a.614.614,0,1,0,.614.614.613.613,0,0,0-.614-.614" transform="translate(-126.401 -129.299)" fill="#0a0f11"/>
      <path id="패스_124" data-name="패스 124" d="M230.815,227.318a.614.614,0,1,0,0-.868.614.614,0,0,0,0,.868" transform="translate(-135.733 -133.164)" fill="#0a0f11"/>
      <path id="패스_125" data-name="패스 125" d="M218.546,213.314a.614.614,0,1,0,0,.868.614.614,0,0,0,0-.868" transform="translate(-128.002 -125.434)" fill="#0a0f11"/>
      <path id="패스_126" data-name="패스 126" d="M217.877,211.28l-17.855,2.254-17.855-2.254v9.592l17.855-1.934,17.855,1.934Z" transform="translate(-107.209 -124.342)" fill="#e3e2d4"/>
      <path id="패스_127" data-name="패스 127" d="M217.288,220.695l-.044,0-17.811-1.929-17.811,1.929a.411.411,0,0,1-.456-.409v-9.592a.412.412,0,0,1,.463-.409l17.8,2.248,17.8-2.248a.412.412,0,0,1,.463.409v9.592a.412.412,0,0,1-.411.411m-17.855-2.757.044,0,17.4,1.885v-8.667l-17.392,2.2a.392.392,0,0,1-.1,0l-17.392-2.2v8.667l17.4-1.885.044,0" transform="translate(-106.62 -123.753)" fill="#0a0f11"/>
      <path id="패스_128" data-name="패스 128" d="M194.313,204.148l.383.776.856.124-.619.6.146.853-.765-.4-.765.4.146-.853-.619-.6.856-.124Z" transform="translate(-113.628 -120.145)" fill="#fff"/>
      <path id="패스_129" data-name="패스 129" d="M253.262,204.148l.383.776.856.124-.619.6.146.853-.765-.4-.765.4.146-.853-.619-.6.856-.124Z" transform="translate(-148.32 -120.145)" fill="#fff"/>
      <path id="패스_130" data-name="패스 130" d="M190.944,221.088q-.97-3.746-1.841-7.517l1.579.191q.713,3.06,1.5,6.105l-.939.064c.617-2.483.925-3.666,1.542-5.915l1.443.175c-.654,2.238-1.249,4.492-1.841,6.747l-1.443.149" transform="translate(-111.291 -125.69)"/>
      <path id="패스_131" data-name="패스 131" d="M204.162,221.728a1.909,1.909,0,0,1-.979-.133,1.965,1.965,0,0,1-.781-.62,3.179,3.179,0,0,1-.513-1.044,4.756,4.756,0,0,1-.184-1.358,4.693,4.693,0,0,1,.184-1.359,3.113,3.113,0,0,1,.513-1.03,1.843,1.843,0,0,1,1.76-.722,2.452,2.452,0,0,1,.983.346,2.9,2.9,0,0,1,.777.7,3.325,3.325,0,0,1,.513.956,3.667,3.667,0,0,1,0,2.291,3.243,3.243,0,0,1-.513.951,2.816,2.816,0,0,1-.777.689,2.4,2.4,0,0,1-.983.329m0-1.635a.793.793,0,0,0,.382-.119,1.043,1.043,0,0,0,.311-.3,1.5,1.5,0,0,0,.208-.462,2.505,2.505,0,0,0,0-1.216,1.536,1.536,0,0,0-.208-.465,1.079,1.079,0,0,0-.311-.307.8.8,0,0,0-.382-.126.7.7,0,0,0-.382.079.881.881,0,0,0-.311.284,1.478,1.478,0,0,0-.208.476,2.861,2.861,0,0,0,0,1.3,1.5,1.5,0,0,0,.208.48.91.91,0,0,0,.311.289.713.713,0,0,0,.382.086" transform="translate(-118.708 -126.793)"/>
      <path id="패스_132" data-name="패스 132" d="M214.943,222.022V216.7l1.467.178v4.992l-1.467.151" transform="translate(-126.498 -127.533)"/>
      <path id="패스_133" data-name="패스 133" d="M220.706,222.02v-3.413l-1.275-.08v-1.283a13.91,13.91,0,0,0,4.017.124v1.223l-1.275.079v3.243a5.98,5.98,0,0,0-1.467.106" transform="translate(-129.139 -127.852)"/>
      <path id="패스_134" data-name="패스 134" d="M232.143,221.8a2.306,2.306,0,0,1-1.561-.776,2.5,2.5,0,0,1-.56-1.7v-2.615l1.467-.178v2.745a1.461,1.461,0,0,0,.181.831.606.606,0,0,0,.485.268.532.532,0,0,0,.488-.232,1.563,1.563,0,0,0,.177-.866v-2.906l1.443-.175v3.138a2.926,2.926,0,0,1-.56,1.944,1.683,1.683,0,0,1-1.561.524" transform="translate(-135.373 -127.236)"/>
      <path id="패스_135" data-name="패스 135" d="M241.961,221.468v-5.856l2.1-.254a1.685,1.685,0,0,1,1.054.172,1.642,1.642,0,0,1,.687.8,3.328,3.328,0,0,1,.243,1.339,3.386,3.386,0,0,1-.243,1.347,1.77,1.77,0,0,1-.687.834,1.8,1.8,0,0,1-1.054.241l-1.281-.06c.261-.322.392-.488.653-.826v2.412l-1.468-.151m1.468-2.031c-.261-.384-.392-.572-.653-.939l1.188-.012a.525.525,0,0,0,.451-.206.938.938,0,0,0,.146-.554.889.889,0,0,0-.146-.544.487.487,0,0,0-.451-.173l-1.188.074c.261-.386.392-.583.653-.986Zm1.138,2.3c-.428-.983-.642-1.456-1.069-2.369l1.555.033c.432.964.649,1.463,1.082,2.5l-1.567-.162" transform="translate(-142.399 -126.732)"/>
      <path id="패스_136" data-name="패스 136" d="M254.663,219.231l2.176.1v1.959l-3.619-.373v-6.895l3.538-.429v1.955l-2.1.135Zm-.1-2.7,1.94-.073v1.853l-1.94-.033Z" transform="translate(-149.025 -125.704)"/>
      <path id="패스_137" data-name="패스 137" d="M205.031,192.081l-1.188-2.827.783-.33,1.906,1.371-.412.173.323-2.307.784-.33,1.2,2.824-.868.365-.646-1.515.137-.058-.22,1.58-.42.177-1.315-.935.17-.071.638,1.518Z" transform="translate(-119.965 -110.543)" fill="#fff"/>
      <path id="패스_138" data-name="패스 138" d="M216.5,189.366a1.515,1.515,0,0,1-1.147-.195,1.416,1.416,0,0,1-.565-.989l-.278-1.664,1.02-.17.273,1.633a.757.757,0,0,0,.207.469.474.474,0,0,0,.676-.113.772.772,0,0,0,.041-.511l-.273-1.634,1-.167.278,1.664a1.417,1.417,0,0,1-.212,1.119,1.516,1.516,0,0,1-1.022.557" transform="translate(-126.243 -109.48)" fill="#fff"/>
      <path id="패스_139" data-name="패스 139" d="M224.6,189.046a3.131,3.131,0,0,1-.743-.105,2.112,2.112,0,0,1-.586-.242l.351-.746a2.113,2.113,0,0,0,.483.216,1.9,1.9,0,0,0,.522.089,1.131,1.131,0,0,0,.235-.014.274.274,0,0,0,.126-.054.119.119,0,0,0,.042-.089.146.146,0,0,0-.089-.133.977.977,0,0,0-.241-.087l-.329-.078a2.959,2.959,0,0,1-.359-.107,1.381,1.381,0,0,1-.329-.17.761.761,0,0,1-.237-.27.831.831,0,0,1-.082-.412.9.9,0,0,1,.172-.515,1.093,1.093,0,0,1,.486-.363,1.962,1.962,0,0,1,.794-.121,2.883,2.883,0,0,1,.611.08,1.927,1.927,0,0,1,.538.214l-.329.742a2.35,2.35,0,0,0-.436-.181,1.608,1.608,0,0,0-.413-.067.847.847,0,0,0-.237.021.258.258,0,0,0-.127.067.146.146,0,0,0-.039.1.139.139,0,0,0,.089.127.969.969,0,0,0,.242.083l.331.074a2.706,2.706,0,0,1,.359.1,1.413,1.413,0,0,1,.327.17.765.765,0,0,1,.237.268.811.811,0,0,1,.082.405.894.894,0,0,1-.172.511,1.112,1.112,0,0,1-.484.365,1.928,1.928,0,0,1-.8.123" transform="translate(-131.401 -109.372)" fill="#fff"/>
      <path id="패스_140" data-name="패스 140" d="M231.561,188.759l1.5.3-.154.765-2.5-.505.607-3.005,2.443.494-.154.764-1.447-.293Zm.159-1.139,1.34.271-.148.73-1.34-.271Z" transform="translate(-135.601 -109.65)" fill="#fff"/>
      <path id="패스_141" data-name="패스 141" d="M238.348,190.637l1.424.568-.289.724-2.368-.944,1.136-2.848,2.315.923-.289.724-1.371-.547Zm.36-1.092,1.269.506-.276.692-1.269-.506Z" transform="translate(-139.547 -110.722)" fill="#fff"/>
      <path id="패스_142" data-name="패스 142" d="M194.373,235.718l2.375-1.729.853,1.171a1.982,1.982,0,0,1,.365.8,1.388,1.388,0,0,1-.065.769,1.419,1.419,0,0,1-.508.63,1.434,1.434,0,0,1-.76.293,1.377,1.377,0,0,1-.754-.173,1.983,1.983,0,0,1-.653-.594Zm1.208.346.245.336a.8.8,0,0,0,.281.25.572.572,0,0,0,.336.059.779.779,0,0,0,.363-.155.756.756,0,0,0,.253-.294.576.576,0,0,0,.045-.337.8.8,0,0,0-.151-.344l-.245-.336Z" transform="translate(-114.392 -137.707)" fill="#fff"/>
      <path id="패스_143" data-name="패스 143" d="M201.442,242.49l1.118.954-.485.568-1.858-1.587,1.908-2.235,1.816,1.551-.485.568-1.076-.918Zm.663-.88,1,.851-.464.543-1-.851Z" transform="translate(-117.831 -141.357)" fill="#fff"/>
      <path id="패스_144" data-name="패스 144" d="M206.316,246.849l1.367-2.6,1.253.658a1.733,1.733,0,0,1,.567.45,1.013,1.013,0,0,1,.1,1.154,1.039,1.039,0,0,1-.418.444,1.068,1.068,0,0,1-.589.124,1.712,1.712,0,0,1-.693-.21l-.765-.4.587-.17-.533,1.015Zm1.36-.457-.181-.6.709.373a.434.434,0,0,0,.313.06.37.37,0,0,0,.234-.446.432.432,0,0,0-.226-.223l-.71-.373.6-.193Z" transform="translate(-121.421 -143.744)" fill="#fff"/>
      <path id="패스_145" data-name="패스 145" d="M215.768,250.688a1.454,1.454,0,0,1-.936-.607,1.358,1.358,0,0,1-.122-1.085l.387-1.569.962.237-.38,1.541a.731.731,0,0,0,0,.492.454.454,0,0,0,.638.157.74.74,0,0,0,.23-.434l.38-1.541.946.233-.387,1.569a1.36,1.36,0,0,1-.612.9,1.454,1.454,0,0,1-1.111.1" transform="translate(-126.328 -145.615)" fill="#fff"/>
      <rect id="사각형_25" data-name="사각형 25" width="2.938" height="0.991" transform="translate(91.627 105.385) rotate(-86.395)" fill="#fff"/>
      <path id="패스_146" data-name="패스 146" d="M227.555,251.86a2.986,2.986,0,0,1-.718-.017,2.031,2.031,0,0,1-.585-.164l.251-.749a2.045,2.045,0,0,0,.484.151,1.833,1.833,0,0,0,.506.026,1.056,1.056,0,0,0,.222-.04.257.257,0,0,0,.114-.065.113.113,0,0,0,.03-.089.141.141,0,0,0-.1-.117.963.963,0,0,0-.239-.056l-.322-.037a2.969,2.969,0,0,1-.353-.062,1.347,1.347,0,0,1-.332-.125.722.722,0,0,1-.255-.231.794.794,0,0,1-.125-.383.864.864,0,0,1,.106-.509,1.047,1.047,0,0,1,.422-.4,1.875,1.875,0,0,1,.742-.2,2.757,2.757,0,0,1,.591.008,1.857,1.857,0,0,1,.536.144l-.23.742a2.241,2.241,0,0,0-.435-.123,1.541,1.541,0,0,0-.4-.018.833.833,0,0,0-.223.046.25.25,0,0,0-.113.078.137.137,0,0,0-.027.1.133.133,0,0,0,.1.111.941.941,0,0,0,.239.051l.324.033a2.59,2.59,0,0,1,.353.06,1.348,1.348,0,0,1,.33.125.73.73,0,0,1,.255.229.769.769,0,0,1,.124.376.856.856,0,0,1-.107.505,1.06,1.06,0,0,1-.42.4,1.856,1.856,0,0,1-.744.207" transform="translate(-133.081 -146.409)" fill="#fff"/>
      <path id="패스_147" data-name="패스 147" d="M236.161,249.8l-.911-2.429.539.229-.869.325-.262-.7,1.4-.525,1.032,2.752Z" transform="translate(-138.1 -145.188)" fill="#fff"/>
      <path id="패스_148" data-name="패스 148" d="M239.822,244.792a1.6,1.6,0,0,1,.718-.232,1.165,1.165,0,0,1,.67.165,1.629,1.629,0,0,1,.559.6,1.757,1.757,0,0,1,.266.863,1.393,1.393,0,0,1-.212.769,1.8,1.8,0,0,1-.638.6,2.057,2.057,0,0,1-.464.2,1.361,1.361,0,0,1-.439.06l-.042-.779a.747.747,0,0,0,.289-.026,1.168,1.168,0,0,0,.25-.109.645.645,0,0,0,.321-.395.7.7,0,0,0-.108-.537l-.063-.107-.062-.107.278.027a.865.865,0,0,1-.047.307.8.8,0,0,1-.157.267,1.126,1.126,0,0,1-.285.228,1.091,1.091,0,0,1-.488.151.949.949,0,0,1-.484-.1.878.878,0,0,1-.372-.359.931.931,0,0,1-.138-.551,1.048,1.048,0,0,1,.191-.525,1.409,1.409,0,0,1,.456-.413m.4.557a.33.33,0,0,0-.116.109.274.274,0,0,0-.041.143.309.309,0,0,0,.046.158.289.289,0,0,0,.186.147.3.3,0,0,0,.228-.039.321.321,0,0,0,.116-.112.268.268,0,0,0,.04-.145.356.356,0,0,0-.161-.275.256.256,0,0,0-.144-.035.341.341,0,0,0-.154.049" transform="translate(-140.757 -143.926)" fill="#fff"/>
      <path id="패스_149" data-name="패스 149" d="M246.478,241.942a1.826,1.826,0,0,1-.524.344,1,1,0,0,1-.513.082.67.67,0,0,1-.422-.226.719.719,0,0,1-.2-.447,1.015,1.015,0,0,1,.111-.514,1.87,1.87,0,0,1,.93-.849,1.015,1.015,0,0,1,.521-.064.722.722,0,0,1,.428.238.67.67,0,0,1,.186.441,1.006,1.006,0,0,1-.127.5,1.826,1.826,0,0,1-.393.492m.917,1a1.888,1.888,0,0,1-.585.377,1.071,1.071,0,0,1-.564.07.775.775,0,0,1-.459-.254.725.725,0,0,1-.2-.476,1.072,1.072,0,0,1,.14-.543,2.222,2.222,0,0,1,1-.911,1.07,1.07,0,0,1,.554-.091.724.724,0,0,1,.456.244.778.778,0,0,1,.211.481,1.071,1.071,0,0,1-.122.554,1.876,1.876,0,0,1-.429.548m-1.282-1.4a.231.231,0,0,0,.079-.163.291.291,0,0,0-.25-.274.234.234,0,0,0-.168.065.229.229,0,0,0-.08.161.29.29,0,0,0,.25.275.229.229,0,0,0,.169-.063m.832.911a.331.331,0,0,0,.117-.217.324.324,0,0,0-.3-.332.373.373,0,0,0-.344.314.284.284,0,0,0,.085.227.288.288,0,0,0,.218.105.335.335,0,0,0,.228-.1" transform="translate(-144.081 -141.397)" fill="#fff"/>
      <path id="패스_150" data-name="패스 150" d="M250.973,239l-2.05-1.59.579-.088-.569.733-.59-.458.916-1.181,2.322,1.8Z" transform="translate(-146.154 -139.137)" fill="#fff"/>
    </g>
  </g>
</svg>
